<svg xmlns="http://www.w3.org/2000/svg"><symbol viewBox="0 0 100 100" id="icon-ad"><title>ad</title><path fill="#93D3E8" d="M50 0c27.614 0 50 22.386 50 50s-22.386 50-50 50S0 77.614 0 50 22.386 0 50 0z"/><path fill="#B7844E" d="M83 87.547C74.194 95.293 62.65 100 50 100c-12.65 0-24.193-4.707-33-12.453V12.453C25.807 4.707 37.35 0 50 0c12.65 0 24.194 4.707 33 12.453v75.094z"/><path d="M47.325 84.33c1.66.322 3.093 2.09 4.786 5.912.76 1.71 1.678 4.33 2.84 7.647l.63 1.788c.91-.102 1.815-.228 2.713-.378-.402.067-.804.133-1.208.19-.298-.845-.59-1.682-.87-2.483-1.67-4.797-3.11-8.94-4.51-10.906-2.917-4.104-6.06-6.337-8.402-5.97-1.66.262-2.962 1.833-3.866 4.673-1.04 3.268.28 8.693 2.606 14.552 1.738.28 3.504.475 5.297.568-1.957-4.23-3.237-7.91-2.63-9.385.458-1.114 1.188-1.19 1.58-1.135 2.214.307 5.153 7.294 6.187 10.533.984-.05 1.958-.134 2.927-.238-.374.04-.75.074-1.127.106l-.525-1.493c-1.152-3.29-2.063-5.89-2.8-7.552-1.445-3.26-2.71-4.954-3.867-5.18-1.058-.207-2.317.768-3.885 2.293-1.294 1.26-.225 6.013 2.163 11.906-.474-.044-.944-.1-1.413-.155-2.355-5.997-3.35-11-1.635-12.665 1.906-1.85 3.408-2.935 5.01-2.626zm18.923 12.955c-5.978-7.11-12.104-12.918-17.02-17.545-2.88-2.71-5.367-5.052-7.173-7.047-4.606-5.088-7.628-12.234-11.128-20.51-3.554-8.405-7.518-17.755-13.927-26.4v5.322c3.968 5.317 7.477 11.215 10.18 17.625 4.202 9.97 5.522 20.15 6.8 29.992.88 6.793 1.76 13.384 3.508 19.683 1.345.347 2.71.64 4.095.875l-.994-.178c-2.24-5.853-3.45-11.275-2.362-14.687 1.062-3.338 2.705-5.202 4.88-5.543 2.87-.447 6.384 1.914 9.635 6.488 1.503 2.115 2.902 6.136 4.674 11.227.304.873.62 1.78.947 2.702 1.203-.204 2.392-.446 3.564-.733l-1.04.24c.068-.526.198-.983.413-1.335.452-.737 1.21-1.04 2.135-.854.465.094 1.025.478 1.646 1.06.5-.157.994-.322 1.486-.495l-.318.112zM50.664 68.61c7.37 3.745 15.34 13.245 20.1 18.92.56.668 1.107 1.32 1.595 1.89l-.156-.324c-5.098-10.58-22.71-26.452-27.993-27.59-.58-.124-.77-.012-.812.025-.402.34-.582.815-.55 1.456.158 3.25 5.536 9.306 12.507 14.083C60 80.25 66.47 88.06 71.745 95.02c2.1-1.017 4.12-2.17 6.044-3.46-6.02-12.21-14.24-21.97-21.174-27.203-.983-.742-1.987-1.487-3.007-2.245-9.63-7.155-20.544-15.266-29.647-31.43-2.04-3.622-4.44-6.928-6.962-9.906v2.9c7.108 9.13 11.33 19.096 15.1 28.01 3.453 8.168 6.437 15.224 10.897 20.15 1.77 1.957 4.242 4.282 7.103 6.974 5.03 4.736 11.32 10.693 17.437 18.014 1.02-.383 2.025-.8 3.014-1.247-5.198-6.838-11.49-14.425-15.91-17.455-7.51-5.145-12.88-11.343-13.064-15.073-.05-1.038.296-1.9 1.003-2.495.44-.37 1.08-.47 1.896-.294 6.008 1.294 23.982 18.136 28.87 28.28 1.358 2.82 1.503 3.427.905 3.815-.713.462-1.212-.133-4.46-4.004-4.39-5.233-12.563-14.976-19.7-18.603-.314-.16-.44-.543-.28-.856.16-.312.542-.438.854-.28zm11.72 29.52c-.062.1-.11.218-.153.35.734-.186 1.462-.387 2.182-.604l-.735.215c-.18-.113-.348-.2-.494-.23-.497-.102-.678.07-.8.27zM41.85 1.82c4.052 1.727 8.695 1.063 12.654-1.608.624.056 1.243.127 1.86.205-2.975 2.367-6.408 3.636-9.794 3.636-1.778 0-3.542-.347-5.217-1.06-1.205-.513-2.163-1.06-2.927-1.632.39-.092.784-.177 1.178-.263-2.286.485-4.514 1.125-6.673 1.91 2.113 1.506 3.943 3.35 5.49 5.816.707 1.128 2.072 4.68 3.962 9.595 5.676 14.766 17.478 45.498 26.136 44.61 2.898-.295 4.85-1.725 5.8-4.247 2.235-5.943-1.613-17.438-8.238-24.6-5.48-5.926-12.3-9.568-14.896-7.954-1.627 1.012-1.525 4.207.285 8.997 4.99 13.204 10.326 21.137 14.64 21.764 1.61.234 3.082-.555 4.492-2.414 2.034-2.684 1.018-6.354-.194-8.96-3.22-6.92-10.645-13.216-13.427-13.35-.533-.026-.66.19-.714.285-1.41 2.405.733 10.985 4.608 15.804 1.37 1.706 3.494 3.576 5.827 2.805 1.024-.34 1.603-.925 1.77-1.792.485-2.553-2.595-7.122-5.775-9.788-1.735-1.455-2.69-1.647-2.95-1.546-.612.237-.68 1.55-.16 3.193.924 2.933 3.304 5.86 5.24 5.377.46-.115.75-.283.775-.45.117-.734-1.987-2.63-3.95-3.87-.296-.188-.385-.58-.197-.88.187-.297.58-.386.876-.198 1.14.72 4.833 3.222 4.525 5.15-.08.5-.443 1.163-1.722 1.484-3.066.77-5.8-3.178-6.76-6.228-.777-2.464-.436-4.246.915-4.766 1.2-.465 2.96.7 4.222 1.758 2.973 2.492 6.864 7.554 6.207 11.004-.177.924-.773 2.154-2.618 2.764-2.394.79-4.888-.32-7.215-3.214-4.008-4.984-6.52-14.175-4.714-17.25.262-.445.795-.96 1.87-.912 3.56.17 11.24 7.03 14.52 14.084 1.95 4.194 1.968 7.745.054 10.27-1.69 2.23-3.605 3.21-5.687 2.904-6.55-.952-12.614-14.552-15.646-22.573-2.627-6.95-1.323-9.564.234-10.533 3.686-2.292 11.25 2.498 16.497 8.17 6.265 6.77 11.173 18.802 8.496 25.918-1.118 2.97-3.49 4.722-6.86 5.064-.163.018-.327.025-.49.025-8.746 0-18.488-23.408-26.96-45.444-1.793-4.666-3.21-8.352-3.85-9.374-1.63-2.598-3.566-4.437-5.868-5.942-1.092.437-2.168.907-3.22 1.417 8.054 5.486 10.962 14.027 13.066 20.225.304.894.59 1.738.874 2.517 1.05 2.89 3.56 7.668 5.983 12.29C53.603 50.34 55.695 54.68 54.53 56c-.166.19-.436.37-.857.37-.21 0-.457-.045-.748-.155C48.11 54.388 39.695 44.71 31.558 35.35l-1.365-1.57c-3.47-3.987-5.504-7.876-7.47-11.638-1.738-3.325-3.343-6.372-5.723-9.107v5.796c2.923 3.318 5.728 7.07 8.068 11.226 8.97 15.928 19.77 23.952 29.296 31.032 1.022.76 2.028 1.508 3.014 2.252 6.62 4.996 15.143 14.575 21.487 27.463 1.002-.71 1.977-1.455 2.923-2.235-3.188-8.414-5.805-17.06-3.176-33.518 3.75-23.464-10.3-29.33-19.6-33.21-1.98-.828-3.693-1.542-5.032-2.33-4.598-2.71-6.766-5.303-6.63-7.93.156-2.98 3.25-5.802 9.46-8.63 1.292-.59 2.44-1.218 3.48-1.875C56.967.38 53.53 0 50 0c-3.365 0-6.648.343-9.827.978.493.286 1.034.568 1.678.842zM29.475 84.138c.57-.29 1.216-2.827.017-10.498-.9-5.77-2.642-13.136-4.658-19.704-1.52-4.952-4.435-10.29-7.83-15.228v2.275c2.852 4.402 6.01 10.025 6.98 14.598.42 1.972.978 4.362 1.568 6.894 3.132 13.416 3.562 16.45 2.42 17.083-.11.062-.25.108-.412.108-.26 0-.582-.12-.954-.498-2.815-2.85-9.43-19.505-9.188-27.96.036-1.28.132-2.344.947-2.412.622-.057 1.668-.14 4.93 16.333.067.346-.156.682-.5.75-.346.066-.68-.156-.747-.5-1.1-5.553-2.488-11.536-3.36-14.14v.004c-.222 7.812 5.874 23.556 8.618 26.805.052-2.252-1.755-9.992-2.99-15.283-.593-2.537-1.152-4.934-1.573-6.917-.806-3.797-3.265-8.46-5.738-12.46v15.12c2.04 7.826 4.837 16.745 9.41 22.92 2.27 3.064 3.032 2.727 3.062 2.71zM83 76.93V54.38l-.007.084c-.525 6.395-1.198 14.713.007 22.47zm-1.935-66.087l.42.334-.42-.334zM60.82 1.188c.374.084.75.167 1.12.26-.37-.093-.745-.177-1.12-.26zm15.587 9c.404 3.438-.68 6.095-2.974 7.29-2.695 1.404-6.563.5-9.627-2.25-3.145-2.825-2.906-4.968-2.483-5.994.816-1.984 3.512-3.153 6.866-2.974 1.845.098 3.09.69 3.703 1.76.966 1.688-.124 3.847-.17 3.938l-.123.166s-1.233 1.185-2.784 1.094c-.946-.053-1.8-.533-2.535-1.427-.223-.27-.185-.672.086-.896s.67-.186.895.085c.5.605 1.044.93 1.62.964.817.052 1.53-.478 1.76-.67.165-.37.685-1.696.15-2.625-.385-.67-1.282-1.044-2.667-1.118-2.723-.14-5.036.756-5.625 2.188-.508 1.234.258 2.852 2.157 4.557 2.67 2.398 5.963 3.23 8.192 2.07 1.825-.952 2.642-3.086 2.298-6.01-.1-.836-.27-2.297-.542-3.852C72.25 5.15 69.78 4.003 67.21 3.058c-1.142.678-2.415 1.393-3.727 2.128-3.635 2.035-7.755 4.342-9.154 6.042-.28.34.228 1.114.458 1.43 2.992 4.097 17.13 11.853 22.597 9.638 2.392-.968 2.15-6.673.758-13.605-.696-.475-1.402-.938-2.124-1.38.134.882.264 1.832.387 2.878zM83 18.8v-6.347c-.313-.276-.64-.54-.96-.807.357 2.294.676 4.68.96 7.154zM18.437 88.757c.41.335.83.66 1.252.98-.422-.32-.842-.645-1.253-.98zM17 86.494v1.053c.322.283.655.554.984.828-.32-.627-.655-1.254-.984-1.88zM51.163 99.97c-.412-1.222-1.087-2.945-1.898-4.66-1.802-3.806-2.894-4.644-3.15-4.644h-.008c.002 0-.098.056-.223.36-.47 1.145.822 4.635 2.88 8.942-.44-.01-.88-.018-1.316-.037.845.045 1.696.07 2.552.07.827 0 1.648-.022 2.466-.062-.432.02-.868.023-1.303.033zM32.388 3.205l-.806.314.806-.314zm49.34 51.153c.283-3.456.507-6.187.344-7.84-.68-6.894-3.193-17.766-3.22-17.875-.08-.343.134-.685.476-.765.34-.08.683.133.763.476.023.097 1.965 8.496 2.91 15.267V32.866c-.16-1.716-.314-3.466-.448-5.276-.463-6.252-1.126-11.908-1.98-17.128-.298-.23-.592-.464-.895-.688 1.195 6.6 1.264 12.458-1.814 13.705-.802.324-1.747.47-2.79.47-6.983 0-18.41-6.57-21.307-10.537-1.12-1.532-.843-2.474-.414-2.995 1.55-1.885 5.6-4.152 9.514-6.344.958-.536 1.893-1.06 2.77-1.567l.742.252c-1.43-.498-2.89-.93-4.374-1.297-1.34.94-2.877 1.832-4.666 2.647-5.656 2.577-8.59 5.113-8.716 7.537-.11 2.106 1.854 4.318 6.004 6.764 1.265.745 2.938 1.444 4.877 2.253 4.805 2.006 10.784 4.502 15.184 9.605 5.208 6.043 6.904 14.216 5.183 24.984-2.533 15.853-.102 24.324 2.952 32.447l.18-.153v-4.813c-2.83-9.326-1.936-20.34-1.275-28.377zM17 72.487v4.13c1.596 2.986 3.38 6.698 5.265 10.628.954 1.99 1.96 4.073 2.996 6.19 1.056.603 2.133 1.17 3.235 1.696C24.387 87.614 20.32 79.68 17 72.487zm6.575 19.943c.438.273.88.538 1.327.8-.447-.26-.89-.527-1.327-.8zm.274-70.88c1.93 3.697 3.93 7.52 7.302 11.393l1.364 1.57c8.035 9.24 16.344 18.797 20.856 20.51l.216.064c.297-1.473-3.798-9.277-6.53-14.483-2.444-4.66-4.973-9.478-6.053-12.448-.287-.792-.576-1.642-.882-2.543-2.09-6.153-4.998-14.692-13.19-19.96-2.258 1.177-4.42 2.513-6.46 4.01.19.228.382.457.552.688 2.11 2.876 3.636 5.75 5.25 8.795 2.26 4.253 4.593 8.65 8.718 13.228 4.47 4.958 6.007 5.883 6.478 6.046.02-.467-.245-2.06-2.747-7.21-1.82-3.75-3.1-7.06-4.228-9.982-2.268-5.875-3.767-9.756-7.468-11.413-2.104-.942-2.524-.676-2.528-.674-.456.764 2.624 5.598 3.784 7.418l7.39 11.596c.188.297.102.69-.194.88-.296.19-.688.103-.877-.193l-7.39-11.596c-3.408-5.35-4.672-7.774-3.67-8.94.627-.732 1.825-.63 4.003.347 4.18 1.872 5.838 6.17 8.135 12.117 1.12 2.898 2.388 6.183 4.186 9.883 3.542 7.292 3.112 8.394 2.37 8.898-.782.528-2.057.478-8.185-6.32-4.23-4.694-6.602-9.163-8.895-13.484-1.593-3-3.097-5.836-5.152-8.637-.165-.224-.352-.447-.538-.67-.606.468-1.2.95-1.785 1.445 2.662 2.967 4.386 6.26 6.17 9.67zm-.595 70.676c-.73-1.507-1.447-2.992-2.136-4.428-1.448-3.017-2.835-5.907-4.12-8.43v4.423c1.158 2.147 2.284 4.297 3.34 6.45.946.698 1.92 1.355 2.915 1.986zm6.397 3.444l.447.202-.448-.202zm6.4 2.343c-1.632-6.145-2.48-12.542-3.333-19.126-1.267-9.758-2.576-19.85-6.712-29.66C23.58 43.47 20.485 38.14 17 33.272v3.23c3.948 5.53 7.373 11.604 9.046 17.058 2.032 6.623 3.79 14.056 4.7 19.882 1.662 10.634-.114 11.536-.698 11.833-1.542.784-3.396-1.39-4.657-3.09C21.55 77 18.953 70.01 17 63.298v6.134C20.69 77.69 25.558 87.194 30.412 96c2.074.887 4.22 1.635 6.427 2.236l-.79-.223z" fill="#CC9357"/><path fill="#F2F1EF" d="M23 24s14.178 3 28 3c13.16 0 26-3 26-3v52l-5.97 1.165L70 66l-5 1-.025 11.06S55.938 79 51 79c-13.75 0-28-3-28-3V24z"/><path fill="#7F8F96" d="M30 48v2.795S39.45 52 49.26 52C59.442 52 70 50.795 70 50.795V48s-10.502 1.205-20.74 1.205C39.51 49.205 30 48 30 48zm0 6v2.795S39.45 58 49.26 58C59.442 58 70 56.795 70 56.795V54s-10.502 1.205-20.74 1.205C39.51 55.205 30 54 30 54zm0-12v2.795S39.45 46 49.26 46C59.442 46 70 44.795 70 44.795V42s-10.502 1.205-20.74 1.205C39.51 43.205 30 42 30 42zm19.26-4.795C39.51 37.205 30 36 30 36v2.795S39.45 40 49.26 40C59.442 40 70 38.795 70 38.795V36s-10.502 1.205-20.74 1.205z"/><path fill="#A07244" d="M27 5.617l-.38.197c-.34.18-.68.364-1.015.552l-.85.49c-.29.17-.583.34-.87.517-.44.27-.87.548-1.3.83l-.385.247c-.572.383-1.134.78-1.688 1.186l-.363.273c-.443.33-.882.665-1.313 1.01l-.396.32c-.42.345-.837.694-1.247 1.05l-.192.17v75.08l.19.165c.413.36.832.713 1.258 1.06l.385.313c.436.348.88.687 1.326 1.02l.35.266c.555.406 1.12.803 1.69 1.188l.392.25c.427.28.856.558 1.292.826l.89.527.823.475c.345.194.694.382 1.044.567l.36.188V5.617z"/><path d="M27 43.173c-2.666-5.792-5.812-11.74-10-17.39v5.322c3.885 5.206 7.322 10.976 10 17.23v-5.162zm-1.932-13.117c.634 1.126 1.28 2.204 1.932 3.253v-3.716c-1.7-2.532-3.005-5.02-4.276-7.452-1.74-3.325-3.344-6.372-5.724-9.107v5.796c2.923 3.318 5.728 7.07 8.068 11.226zM27 40.183V35.67c-1.03-1.58-2.047-3.227-3.038-4.988-2.04-3.622-4.44-6.928-6.962-9.906v2.9c4.16 5.343 7.332 10.97 10 16.507zm-2.502-31.04c-.33.552 1.195 3.238 2.502 5.37v-4.71c-2.08-.926-2.498-.664-2.502-.66zM17 33.272V36.5c3.948 5.53 7.373 11.606 9.046 17.06.327 1.066.644 2.157.954 3.255v-5.07c-.313-.84-.64-1.68-.992-2.52C23.58 43.47 20.485 38.142 17 33.273zm10 48.91V79.48c-.125-.076-.256-.172-.396-.314-2.815-2.85-9.43-19.505-9.188-27.96.036-1.28.132-2.344.947-2.412.622-.057 1.668-.14 4.93 16.333.067.346-.156.682-.5.75-.346.066-.68-.156-.747-.5-1.1-5.553-2.488-11.536-3.36-14.14v.004c-.215 7.537 5.45 22.454 8.314 26.413V75.27c-.56-3.383-1.777-8.607-2.688-12.507-.593-2.537-1.152-4.934-1.573-6.917-.808-3.797-3.267-8.46-5.74-12.46v15.12c2.04 7.826 4.837 16.745 9.41 22.92.21.282.404.53.59.758zM17 38.71v2.275c2.853 4.402 6.01 10.025 6.98 14.598.42 1.972.98 4.362 1.57 6.894.57 2.447 1.05 4.546 1.45 6.352v-7.1c-.663-2.624-1.395-5.266-2.17-7.79-1.518-4.953-4.434-10.29-7.83-15.228zm10 45.397c-.588-.588-1.14-1.287-1.61-1.92C21.55 77 18.953 70.01 17 63.298v6.134c2.822 6.314 6.332 13.354 10 20.26v-5.59zm-3.434 8.32l.316.202.89.527.147.085c-.456-.265-.907-.537-1.354-.815zM17 72.485v4.133c1.596 2.985 3.38 6.697 5.265 10.627.954 1.99 1.96 4.073 2.996 6.19l.337.193c.345.194.694.382 1.044.567l.36.188v-2.01c-3.592-6.68-7.083-13.568-10-19.887zM21.12 87.8c-1.448-3.017-2.835-5.907-4.12-8.43v4.423c1.157 2.146 2.282 4.293 3.34 6.445l.17.128c.554.406 1.118.803 1.69 1.188l.39.252.665.424c-.73-1.507-1.447-2.993-2.136-4.428zm-.096-77.446c2.11 2.875 3.636 5.75 5.25 8.794l.726 1.36V16.91c-3.244-5.11-4.438-7.464-3.46-8.605.573-.668 1.63-.633 3.46.117V5.7l-.067-.048-.312.162c-.34.18-.68.364-1.015.552l-.85.49c-.29.17-.583.34-.87.517-.44.27-.87.548-1.3.83l-.385.247c-.572.383-1.134.78-1.688 1.186l-.038.028c.19.23.38.457.55.688zm2.825 11.2c.976 1.868 1.97 3.77 3.15 5.692V23.16c-.64-1.148-1.248-2.288-1.847-3.416-1.593-3-3.097-5.836-5.152-8.637-.164-.224-.35-.448-.537-.67l-.626.48-.396.323-.76.642c2.662 2.967 4.386 6.26 6.17 9.67zm-5.415 67.203l.012.01.385.313c.283.226.572.443.86.662-.423-.323-.844-.65-1.257-.985zM17 86.495v1.045l.188.165c.262.23.53.448.797.67-.32-.627-.656-1.254-.985-1.88z" fill="#B7844E"/><path d="M52 78.988c.627-.013 1.3-.037 1.993-.07L53 67h-1v11.988zm6-.315c.674-.05 1.334-.102 1.963-.153L59 66h-1v12.673zM71 65h-1v1l1.03 11.165.892-.174zm-6 0h-1l-.022 13.16.997-.1L65 67l.15-.03L65 65zM47.996 78.953L47 67h-1v11.878c.663.03 1.33.056 1.996.075zM28 76.91c.642.106 1.332.216 2.07.328L29 65h-1v11.91zM34 65v12.792c.545.07 1.105.14 1.676.208H36l-1-13h-1zm6 13.457c.65.06 1.306.116 1.97.168L41 66h-1v12.457z" fill="#C2C1BF"/><path fill="#DFDEDC" d="M27 24.745c-2.496-.428-4-.745-4-.745v52s1.505.316 4 .742V24.745z"/></symbol><symbol viewBox="0 0 100 100" id="icon-bill"><title>bill</title><path fill="#2EA9D3" d="M50 0c27.614 0 50 22.386 50 50s-22.386 50-50 50S0 77.614 0 50 22.386 0 50 0zm0 0c27.614 0 50 22.386 50 50s-22.386 50-50 50S0 77.614 0 50 22.386 0 50 0z"/><path fill="#2998BD" d="M50 2C37.826 2 26.67 6.355 18 13.587V80l4-3 4 3 4-3 4 3 4-3 4 3 4-3 4 3 4-3 4 3 4-3 4 3 4-3 4 3 4-3 4 3V13.587C73.328 6.355 62.174 2 50 2z"/><path fill="#F2F1EF" d="M50 0C37.826 0 26.67 4.355 18 11.587V78l4-3 4 3 4-3 4 3 4-3 4 3 4-3 4 3 4-3 4 3 4-3 4 3 4-3 4 3 4-3 4 3V11.587C73.328 4.355 62.174 0 50 0z"/><path fill="#E4665C" d="M53.192 61.422v-1.646c.53.062.86.334 1.273.334.484 0 .79-.434.79-.916 0-.892-1.355-1.188-2.063-1.214v-.383c0-.335 0-.582-.318-.582s-.318.247-.318.582v.383c-1.402.16-2.534 1.2-2.534 2.786 0 1.77 1.415 2.093 2.534 2.438v2.068c-.684-.075-1.273-.47-1.78-.47-.483 0-.79.395-.79.878 0 1.064 1.615 1.337 2.57 1.36v.385c0 .285 0 .582.318.582s.318-.297.318-.582v-.396c1.475-.125 2.678-1.19 2.678-2.837 0-1.99-1.533-2.423-2.678-2.77zm-.636-.223c-.377-.15-.624-.335-.624-.656 0-.396.27-.656.624-.755v1.41zm.636 4.023v-1.807c.45.16.768.396.768.805 0 .483-.272.88-.768 1.003zm8.694.062H59.73c1.002-1.324 2.83-3.033 2.83-4.754 0-1.57-1.168-2.574-2.62-2.574-1.448 0-2.77 1.25-2.77 2.81 0 .483.295.904.86.904 1.133 0 .484-2.006 1.84-2.006.483 0 .85.446.85.954 0 .445-.2.83-.413 1.15-.896 1.362-1.958 2.477-2.937 3.702-.117.148-.27.372-.27.632 0 .57.4.816.918.816h3.938c.448 0 .85-.247.85-.816s-.4-.817-.92-.817zm6.666-3.17c.648-.433.967-1.113.967-1.894 0-.965-.814-2.265-2.513-2.265-1.31 0-2.57 1.04-2.57 2.006 0 .46.283.917.768.917.8 0 .648-1.214 1.768-1.214.53 0 .85.36.85.83 0 1.374-1.675.495-1.675 1.795 0 1.46 2.005.186 2.005 1.92 0 .655-.495 1.15-1.108 1.15-1.333 0-1.144-1.448-1.946-1.448-.425 0-.908.347-.908.83 0 .978 1.085 2.327 2.83 2.327 1.674 0 2.97-1.25 2.97-2.736-.002-.976-.59-1.806-1.44-2.214z"/><path fill="#D9D8D7" d="M28 48h44v2H28v-2z"/><path fill="#868686" d="M28 22.974h36v-3.997H28v3.997zm28 4.004H28v3.997h28v-3.997zM28 38.974h34v-3.996H28v3.996zM68 18.98V23h4v-4.02h-4zM68 31h4v-4.02h-4V31zm0 8h4v-4.02h-4V39z"/><path d="M37 1.717c-1.356.364-2.692.78-4 1.252V11h4V1.717zm4-.893c-.67.122-1.338.256-2 .405V11h2V.824zM31 3.747c-1.017.418-2.018.867-3 1.35V11h3V3.747zM46 .174c-1.008.08-2.01.186-3 .324V11h3V.174zM50 0c-.67 0-1.336.024-2 .05V11h2V0zm18 3.353c-.66-.255-1.327-.494-2-.722V11h2V3.353zm2 .82V11h2V5.096c-.658-.323-1.326-.63-2-.924zM56 .37c-1.318-.157-2.65-.267-4-.32V11h4V.37zm4 .632c-.66-.134-1.33-.25-2-.357V11h2V1.002zm4 1c-.66-.194-1.326-.377-2-.543V11h2V2z" fill="#E4665C"/></symbol><symbol viewBox="0 0 100 100" id="icon-bowling"><title>bowling</title><path fill="#3CB29D" d="M50 0c27.614 0 50 22.386 50 50s-22.386 50-50 50S0 77.614 0 50 22.386 0 50 0z"/><path fill="#334E5C" d="M45.173 32C58.708 32 69.68 42.97 69.68 56.5S58.708 81 45.173 81 20.667 70.03 20.667 56.5 31.64 32 45.173 32z"/><path fill="#2D4552" d="M49.173 76c-13.535 0-24.507-10.97-24.507-24.5 0-4.626 1.284-8.952 3.513-12.643-4.63 4.457-7.514 10.71-7.514 17.643 0 13.53 10.972 24.5 24.507 24.5 8.907 0 16.703-4.75 20.994-11.856C61.76 73.386 55.774 76 49.173 76z"/><path fill="#2F4856" d="M67.762 66.018c.14-1.345.223-2.74.223-4.238 0-6.884-1.447-11.813-4.708-17.837-1.072-1.953-1.802-4-2.22-6.092-2.29-1.95-4.94-3.485-7.84-4.492.068 3.635-.77 7.25-2.59 10.51-3.03 5.473-4.645 11.652-4.645 17.912 0 6.254 1.614 12.437 4.645 17.913h.043c.143.18.406.346.758.5 7.385-1.945 13.41-7.246 16.334-14.175z"/><path fill="#2A414D" d="M49.173 76l-.32-.008c.526 1.26 1.11 2.5 1.774 3.7h.043c.142.18.404.346.754.498l.053-.013.77-.227.673-.206.746-.268.662-.25.715-.306.654-.298.68-.337.65-.348.64-.365.647-.4.593-.386c.227-.153.447-.314.667-.475l.522-.38c.256-.198.504-.404.753-.61l.382-.316c.37-.32.73-.65 1.078-.993l.2-.205c.28-.282.558-.567.825-.862l.315-.364c.22-.253.438-.506.646-.767l.324-.42c.194-.253.386-.51.57-.77l.31-.454c.178-.263.35-.527.516-.796l.127-.21C61.74 73.394 55.763 76 49.173 76z"/><path fill="#EDEDED" d="M70.985 61.78c0-6.884-1.447-11.813-4.708-17.837-2.405-4.38-3.184-9.23-2.25-14l1.552-8.058c.06-.4.077-.542.077-1.097 0-3.204-2.564-5.79-5.742-5.79-3.11 0-5.67 2.586-5.67 5.79 0 .415-.01.696.08 1.097l1.55 7.98c.854 4.77.155 9.698-2.248 14-3.03 5.475-4.645 11.654-4.645 17.914 0 6.253 1.614 12.436 4.645 17.912h.043c.595.746 3.182 1.308 6.284 1.308 3.388 0 6.155-.67 6.39-1.518 3.21-5.96 4.64-10.87 4.64-17.702z"/><path fill="#2D4552" d="M42.667 40.5c0-1.38-1.12-2.5-2.5-2.5s-2.5 1.12-2.5 2.5 1.12 2.5 2.5 2.5 2.5-1.12 2.5-2.5zm6.5-1.5c-1.38 0-2.5 1.12-2.5 2.5s1.12 2.5 2.5 2.5 2.5-1.12 2.5-2.5-1.12-2.5-2.5-2.5zm-5 6c-1.38 0-2.5 1.12-2.5 2.5s1.12 2.5 2.5 2.5 2.5-1.12 2.5-2.5-1.12-2.5-2.5-2.5z"/><path fill="#DDDCDC" d="M56.67 79.693h-.043c-3.03-5.477-4.645-11.66-4.645-17.913 0-6.26 1.614-12.44 4.645-17.913 2.403-4.303 3.102-9.23 2.25-14.002l-1.553-7.98c-.06-.37-.08-.572-.08-1.095 0-2.675 1.786-4.912 4.185-5.58-.483-.133-.99-.21-1.514-.21-3.11 0-5.67 2.585-5.67 5.79 0 .585.02.68.08 1.096l1.55 7.98c.854 4.77.155 9.698-2.248 14-3.03 5.475-4.645 11.654-4.645 17.914 0 6.254 1.614 12.437 4.645 17.913h.043c.595.745 3.182 1.307 6.284 1.307.528 0 1.038-.018 1.53-.05-2.42-.144-4.317-.634-4.814-1.257z"/><path d="M64.304 38.986c-.34-1.313-.543-2.647-.618-3.99H56.18c-.077 1.345-.28 2.68-.614 3.99h8.738zm-8.596-9.99l.17.87c.184 1.035.282 2.078.32 3.12h7.483c.046-1.014.15-2.03.35-3.043l.18-.947H55.71z" fill="#E2574C"/><path d="M55.876 29.865c.185 1.036.283 2.08.32 3.122h3c-.038-1.042-.135-2.086-.32-3.122l-.17-.87h-3l.17.87zm.305 5.13c-.076 1.346-.278 2.682-.613 3.99h3c.335-1.31.537-2.644.614-3.99h-3z" fill="#D25047"/><path d="M39.583 38.542c1.38 0 2.5 1.12 2.5 2.5 0 .59-.212 1.123-.552 1.55.684-.446 1.137-1.214 1.137-2.09 0-1.382-1.12-2.5-2.5-2.5-.792 0-1.49.374-1.948.95.39-.26.86-.41 1.363-.41zM44.167 45c-.792 0-1.49.375-1.948.95.392-.257.86-.41 1.363-.41 1.38 0 2.5 1.12 2.5 2.5 0 .59-.212 1.124-.552 1.55.684-.445 1.137-1.213 1.137-2.09 0-1.38-1.12-2.5-2.5-2.5zm5-6c-.792 0-1.49.375-1.948.95.392-.257.86-.41 1.363-.41 1.38 0 2.5 1.12 2.5 2.5 0 .59-.212 1.124-.552 1.55.684-.445 1.137-1.213 1.137-2.09 0-1.38-1.12-2.5-2.5-2.5z" fill="#2C4350"/></symbol><symbol viewBox="0 0 100 100" id="icon-button"><title>button</title><path fill="#F4F0D3" d="M50 0c27.614 0 50 22.386 50 50s-22.386 50-50 50S0 77.614 0 50 22.386 0 50 0z"/><path fill="#D58953" d="M50 18c17.673 0 32 14.327 32 32 0 17.674-14.327 32-32 32S18 67.674 18 50c0-17.673 14.327-32 32-32z"/><path fill="#CA824F" d="M50 27c12.702 0 23 10.297 23 23 0 12.702-10.298 23-23 23S27 62.702 27 50c0-12.703 10.298-23 23-23z"/><path fill="#D99565" d="M69.683 30.297c7.02 7.03 9.68 17.874 7.69 27.716 3.463-9.95 1.367-21.272-6.378-29.03s-19.05-9.858-28.98-6.39c9.824-1.99 20.65.674 27.668 7.704z"/><path fill="#A2683F" d="M42 38c-2.21 0-4 1.79-4 4s1.79 4 4 4 4-1.79 4-4-1.79-4-4-4zm16 8c2.21 0 4-1.79 4-4s-1.79-4-4-4-4 1.79-4 4 1.79 4 4 4zm0 8c-2.21 0-4 1.79-4 4s1.79 4 4 4 4-1.79 4-4-1.79-4-4-4zm-16 0c-2.21 0-4 1.79-4 4s1.79 4 4 4 4-1.79 4-4-1.79-4-4-4z"/><path fill="#F4F0D3" d="M58.416 55.45l-13.86-13.862c-.81-.81-2.126-.81-2.937 0-.812.81-.812 2.126 0 2.937l13.86 13.86c.81.81 2.125.81 2.936 0 .81-.81.81-2.125 0-2.936z"/><path fill="#CBC8AF" d="M50.557 53.463l-4.02-4.02 2.936-2.938 4.02 4.02z"/><path fill="#F4F0D3" d="M41.615 55.45l13.86-13.862c.81-.81 2.126-.81 2.937 0 .81.81.81 2.126 0 2.937l-13.86 13.86c-.81.81-2.126.81-2.937 0-.81-.81-.81-2.125 0-2.936z"/><path fill="#BA7849" d="M52 71c-12.702 0-23-10.298-23-23 0-5.842 2.182-11.172 5.77-15.23C30.008 36.986 27 43.14 27 50c0 12.702 10.298 23 23 23 6.86 0 13.015-3.007 17.23-7.77C63.17 68.816 57.84 71 52 71z"/><path fill="#DBD8BD" d="M50 82c-17.673 0-32-14.326-32-32 0-8.328 3.183-15.91 8.396-21.604C20.008 34.246 16 42.656 16 52c0 17.674 14.327 32 32 32 9.346 0 17.753-4.008 23.604-10.396C65.91 78.817 58.328 82 50 82z"/></symbol><symbol viewBox="0 0 100 100" id="icon-buzzer"><title>buzzer</title><path fill="#4681A0" d="M50 0c27.614 0 50 22.386 50 50s-22.386 50-50 50S0 77.614 0 50 22.386 0 50 0z"/><path fill="#fff" d="M64.01 63.75l-.02-1.5c.033 0 3.41-.07 6.716-1.76 4.342-2.217 6.544-6.083 6.544-11.49h1.5c0 14.396-14.593 14.748-14.74 14.75z"/><path fill="#3F7490" d="M65.01 64.75l-.02-1.5c.033 0 3.41-.07 6.716-1.76 4.342-2.217 6.544-6.083 6.544-11.49h1.5c0 14.396-14.593 14.748-14.74 14.75z"/><path fill="#D5D5D5" d="M79 45c1.656 0 3 1.344 3 3 0 1.657-1.344 3-3 3s-3-1.343-3-3c0-1.656 1.344-3 3-3z"/><path fill="#BDBDBD" d="M32 61h36c2.21 0 4 1.79 4 4v10c0 2.21-1.79 4-4 4H32c-2.21 0-4-1.79-4-4V65c0-2.21 1.79-4 4-4z"/><path fill="#3F7490" d="M48 21c12.15 0 22 9.85 22 22s-9.85 22-22 22-22-9.85-22-22 9.85-22 22-22z"/><path fill="#D5D5D5" d="M32 58h36c2.21 0 4 1.79 4 4v10c0 2.21-1.79 4-4 4H32c-2.21 0-4-1.79-4-4V62c0-2.21 1.79-4 4-4z"/><path fill="#BFBFBF" d="M32 58l-.08.008C35.937 62.308 41.653 65 48 65c6.352 0 12.07-2.695 16.087-7H32z"/><path fill="#A4A4A4" d="M32 61c-.552 0-1 .448-1 1 0 .553.448 1 1 1s1-.447 1-1c0-.552-.448-1-1-1zm36 2c.553 0 1-.447 1-1 0-.552-.447-1-1-1s-1 .448-1 1c0 .553.447 1 1 1zm0 8c-.553 0-1 .448-1 1 0 .553.447 1 1 1s1-.447 1-1c0-.552-.447-1-1-1zm-36 0c-.552 0-1 .448-1 1 0 .553.448 1 1 1s1-.447 1-1c0-.552-.448-1-1-1z"/><path fill="#F0C75E" d="M50 19c12.15 0 22 9.85 22 22s-9.85 22-22 22-22-9.85-22-22 9.85-22 22-22z"/><path fill="#D9B455" d="M49 39c1.656 0 3 1.344 3 3s-1.344 3-3 3c-1.657 0-3-1.344-3-3s1.343-3 3-3z"/><path fill="#F5D88F" d="M50 38c1.656 0 3 1.344 3 3s-1.344 3-3 3c-1.657 0-3-1.344-3-3s1.343-3 3-3z"/><path fill="#BABABA" d="M80 50c-1.656 0-3-1.343-3-3 0-.57.168-1.1.445-1.554C76.582 45.973 76 46.916 76 48c0 1.657 1.344 3 3 3 1.085 0 2.027-.582 2.555-1.446C81.1 49.832 80.57 50 80 50z"/><path fill="#F7E4B0" d="M50 38c-1.085 0-2.027.582-2.554 1.446C47.9 39.168 48.43 39 49 39c1.656 0 3 1.344 3 3 0 .57-.168 1.1-.445 1.554C52.418 43.027 53 42.084 53 41c0-1.656-1.344-3-3-3z"/><path fill="#DFB957" d="M53 58c-12.15 0-22-9.85-22-22 0-3.088.64-6.027 1.788-8.694C29.794 31.064 28 35.82 28 41c0 12.15 9.85 22 22 22 9.062 0 16.842-5.48 20.212-13.306C66.182 54.754 59.972 58 53 58z"/></symbol><symbol viewBox="0 0 100 100" id="icon-calculator"><title>calculator</title><path fill="#2EA9D3" d="M50 0c27.614 0 50 22.386 50 50s-22.386 50-50 50S0 77.614 0 50 22.386 0 50 0z"/><path fill="#EDEDED" d="M19 25h62c1.657 0 3 1.344 3 3v69c0 1.657-1.343 3-3 3H19c-1.657 0-3-1.343-3-3V28c0-1.656 1.343-3 3-3z"/><path fill="#324D5B" d="M23 32h54v18H23V32z"/><path fill="#B3B9BD" d="M59.488 40.625c.344-.15.61-.368.8-.652.19-.285.285-.61.285-.975 0-.587-.206-1.073-.62-1.456s-.994-.575-1.743-.575c-.755 0-1.34.192-1.748.575-.41.383-.615.868-.615 1.456 0 .343.09.66.267.948.177.288.46.515.85.68-.453.193-.787.468-.998.824-.21.356-.316.748-.316 1.174 0 .773.28 1.382.843 1.826.476.376 1.072.564 1.788.564.772 0 1.388-.227 1.853-.682.463-.455.695-1.046.695-1.772 0-.44-.114-.83-.342-1.165-.228-.34-.56-.594-.998-.77zm-1.955-2.202c.172-.172.402-.258.693-.258.28 0 .504.085.674.255s.255.396.255.68c0 .3-.086.536-.258.706s-.4.255-.688.255c-.283 0-.51-.083-.68-.25-.17-.17-.256-.404-.256-.705 0-.283.087-.51.26-.682zm1.493 5.04c-.204.225-.462.336-.773.336-.32 0-.585-.118-.798-.35s-.32-.557-.32-.973c0-.297.092-.573.272-.827.18-.254.456-.38.824-.38.32 0 .583.11.79.334.208.225.312.52.312.89 0 .423-.102.746-.306.97zm6.462-2.838c.344-.15.61-.368.8-.652.19-.285.285-.61.285-.975 0-.587-.206-1.073-.62-1.456s-.994-.575-1.743-.575c-.755 0-1.34.192-1.748.575-.41.383-.615.868-.615 1.456 0 .343.09.66.267.948.177.288.46.515.85.68-.453.193-.787.468-.998.824-.21.356-.316.748-.316 1.174 0 .773.28 1.382.843 1.826.476.376 1.072.564 1.788.564.772 0 1.388-.227 1.853-.682.463-.455.695-1.046.695-1.772 0-.44-.114-.83-.342-1.165-.228-.34-.56-.594-.998-.77zm-1.955-2.202c.172-.172.402-.258.693-.258.28 0 .504.085.674.255s.255.396.255.68c0 .3-.086.536-.258.706s-.4.255-.688.255c-.283 0-.51-.083-.68-.25-.17-.17-.256-.404-.256-.705 0-.283.087-.51.26-.682zm1.493 5.04c-.204.225-.462.336-.773.336-.32 0-.585-.118-.798-.35s-.32-.557-.32-.973c0-.297.092-.573.272-.827.18-.254.456-.38.824-.38.32 0 .583.11.79.334.208.225.312.52.312.89 0 .423-.102.746-.306.97zm7.015-5.57c-.51-.616-1.166-.926-1.964-.926-.734 0-1.34.245-1.812.733-.475.49-.713 1.133-.713 1.93 0 .767.226 1.39.676 1.867.45.478.983.717 1.603.717.57 0 1.044-.22 1.423-.66-.06.9-.2 1.496-.42 1.783-.217.286-.482.43-.794.43-.248 0-.447-.072-.598-.216-.15-.142-.243-.362-.28-.66l-1.46.162c.107.65.352 1.14.73 1.47.38.327.878.49 1.494.49.855 0 1.55-.318 2.084-.955.533-.638.8-1.676.8-3.115 0-1.415-.256-2.43-.77-3.048zm-1.22 2.872c-.2.23-.443.344-.734.344-.3 0-.55-.12-.752-.358-.2-.238-.3-.61-.3-1.12 0-.5.092-.863.276-1.083.184-.22.416-.33.695-.33.293 0 .553.133.776.4.225.27.336.647.336 1.135 0 .444-.097.78-.296 1.01z"/><path fill="#E2574C" d="M36 56H26c-1.657 0-3 1.344-3 3v10c0 1.657 1.343 3 3 3h10c1.657 0 3-1.343 3-3V59c0-1.656-1.343-3-3-3zm0 19H26c-1.657 0-3 1.344-3 3v10c0 1.657 1.343 3 3 3h10c1.657 0 3-1.343 3-3V78c0-1.656-1.343-3-3-3zm19-19H45c-1.657 0-3 1.344-3 3v10c0 1.657 1.343 3 3 3h10c1.657 0 3-1.343 3-3V59c0-1.656-1.343-3-3-3zm0 19H45c-1.657 0-3 1.344-3 3v10c0 1.657 1.343 3 3 3h10c1.657 0 3-1.343 3-3V78c0-1.656-1.343-3-3-3z"/><path fill="#fff" d="M47 84v-2h6v2h-6zm4-4c0 .554-.447 1-1 1s-1-.446-1-1 .447-1 1-1 1 .448 1 1zm-23 2h6v2h-6v-2zm4-15h-2v-2h-2v-2h2v-2h2v2h2v2h-2v2zm18 18c.553 0 1 .448 1 1s-.447 1-1 1-1-.446-1-1 .447-1 1-1zm-2.828-22.413l1.414-1.415L50 62.587l1.414-1.415 1.414 1.414L51.414 64l1.414 1.415-1.414 1.414L50 65.414l-1.415 1.414-1.414-1.415L48.586 64l-1.413-1.413z"/><path fill="#3DB39E" d="M64 56h10c1.657 0 3 1.344 3 3v29c0 1.657-1.343 3-3 3H64c-1.656 0-3-1.343-3-3V59c0-1.656 1.344-3 3-3z"/><path fill="#fff" d="M66 70v2h6v-2h-6zm0 5h6v-2h-6v2z"/><path fill="#349886" d="M74 89H64c-1.656 0-3-1.343-3-3v2c0 1.657 1.344 3 3 3h10c1.657 0 3-1.343 3-3v-2c0 1.657-1.343 3-3 3z"/><path d="M55 70H45c-1.657 0-3-1.343-3-3v2c0 1.657 1.343 3 3 3h10c1.657 0 3-1.343 3-3v-2c0 1.657-1.343 3-3 3zm-19 0H26c-1.657 0-3-1.343-3-3v2c0 1.657 1.343 3 3 3h10c1.657 0 3-1.343 3-3v-2c0 1.657-1.343 3-3 3zm0 19H26c-1.657 0-3-1.343-3-3v2c0 1.657 1.343 3 3 3h10c1.657 0 3-1.343 3-3v-2c0 1.657-1.343 3-3 3zm19 0H45c-1.657 0-3-1.343-3-3v2c0 1.657 1.343 3 3 3h10c1.657 0 3-1.343 3-3v-2c0 1.657-1.343 3-3 3z" fill="#C04A41"/><path fill="#DCDCDC" d="M81 98H19c-1.657 0-3-1.343-3-3v2c0 1.657 1.343 3 3 3h62c1.657 0 3-1.343 3-3v-2c0 1.657-1.343 3-3 3z"/></symbol><symbol viewBox="0 0 100 100" id="icon-converse"><title>converse</title><path fill="#3DB39E" d="M50 0C22.386 0 0 22.386 0 50c0 27.613 22.386 50 50 50s50-22.387 50-50c0-27.614-22.386-50-50-50z"/><path fill="#EFC75E" d="M19.232 61.603l2.68-26.548c-.002-.22-.06-1.474-1.228-1.518-.5-.02-.888-.44-.87-.94s.442-.893.94-.875c1.607.06 2.454 1.136 2.79 2.22l19.918-5.92c.428-.117.878.096 1.062.503.11.246 12.165 24.628 34.55 24.628 3.933 0 7.418 3.7 7.88 6.946l.007.027.002.015.018.1c.162 1.404-.265 3.307-1.164 4.533-22.107-.047-49.027.348-66.816.188l.235-3.352-.003-.007z"/><path fill="#EBEDEE" d="M34.002 37.008c-3.866 0-7 3.13-7 6.99 0 3.858 3.134 6.987 7 6.987 3.865 0 7-3.128 7-6.988 0-3.86-3.135-6.99-7-6.99z"/><path fill="#C6584E" d="M30.043 42.977c.07-.206.246-.357.46-.39l2.075-.32.902-1.944c.095-.204.298-.334.52-.334.224 0 .427.13.522.333l.902 1.943 2.075.32c.213.033.39.185.458.39.07.208.017.437-.134.592l-1.52 1.575.353 2.185c.035.22-.057.44-.236.57-.1.07-.215.105-.33.105-.097 0-.192-.024-.28-.073L34 46.92l-1.81 1.01c-.086.048-.182.073-.277.073-.117 0-.232-.036-.332-.106-.18-.128-.27-.35-.235-.57l.353-2.184-1.52-1.575c-.152-.156-.203-.384-.135-.59z"/><path fill="#DCB757" d="M21.16 64.978l3.008-31.22-.625.186c-.336-1.084-1.183-2.16-2.79-2.22-.497-.02-.92.372-.94.873s.372.922.87.94c1.167.045 1.226 1.298 1.228 1.52l-2.68 26.547.002.01-.235 3.35 2.163.014z"/><path fill="#F1CD6E" d="M86.24 57.957c-1.297-2.54-4.092-4.804-7.166-4.804-22.386 0-34.44-24.382-34.55-24.628-.185-.407-.635-.62-1.063-.502l-2.67.794c7.41 16.646 24.883 28.496 45.45 29.14z"/><path fill="#FEFEFC" d="M52.62 37.38c-.503-.497-1.315-.497-1.817 0l-2.422 2.406c-.5.498-.5 1.306 0 1.803.502.497 1.315.497 1.817 0l2.422-2.406c.5-.497.5-1.305 0-1.803zm4 4c-.503-.498-1.315-.498-1.817 0l-2.422 2.406c-.5.498-.5 1.306 0 1.803.502.497 1.315.497 1.817 0l2.422-2.406c.5-.497.5-1.305 0-1.803zm4 4c-.503-.497-1.315-.497-1.817 0l-2.422 2.406c-.5.498-.5 1.305 0 1.803.502.497 1.315.497 1.817 0l2.422-2.406c.5-.497.5-1.305 0-1.803z"/><path fill="#EBEDEE" d="M86.98 60.24l-.02-.098v-.015l-.007-.028c-.462-3.246-3.947-6.947-7.88-6.947-2.76 0-5.36-.373-7.802-1.023-1.66 2.422-2.666 5.554-2.666 8.982 0 1.28.15 2.516.413 3.693 5.75-.026 11.416-.042 16.797-.03.9-1.226 1.327-3.13 1.165-4.534z"/><path fill="#3E4E5C" d="M69.354 61.112c0-3.385 1.032-6.464 2.71-8.795-.52-.124-1.034-.26-1.54-.407-1.667 2.517-2.67 5.717-2.67 9.202 0 1.28.148 2.514.4 3.696l1.526-.006c-.272-1.172-.426-2.407-.426-3.69z"/><path fill="#D7B354" d="M86.27 64.006c.307-.618.527-1.315.644-2.008H19.207l-.14 2.008H86.27z"/><path fill="#CFAC51" d="M21.447 61.998h-2.24l-.073 1.03-.068.978h2.187z"/><path fill="#D3D5D6" d="M68.655 61.998c.037.685.113 1.354.228 2.008H86.27v-.002c.153-.308.284-.634.392-.97l.004-.014c.105-.333.188-.675.246-1.016l.002-.007h-18.26z"/><path fill="#384653" d="M68.125 64.006h1.493c-.118-.652-.2-1.322-.237-2.008h-1.476c.036.684.11 1.353.22 2.008z"/><path fill="#fff" d="M86.353 62.986H19.647c-.91 0-1.647.717-1.647 1.6v.8c0 .885.737 1.6 1.647 1.6h66.706c.91 0 1.647-.715 1.647-1.6v-.8c0-.883-.738-1.6-1.647-1.6z"/><path d="M42.018 62.986h1.97v4h-1.97zm-5 0h1.97v4h-1.97zm-5 0h1.97v4h-1.97zm-5 0h1.97v4h-1.97zm-5 0h1.968v4h-1.97zm30 0h1.97v4h-1.97zm-5 0h1.97v4h-1.97zm10 0h1.97v4h-1.97zm20 0h1.97v4h-1.97zm5 0h1.97v4h-1.97zm-10 0h1.97v4h-1.97zm-5 0h1.97v4h-1.97zm-5 0h1.97v4h-1.97z" fill="#E5E5E5"/></symbol><symbol viewBox="0 0 100 100" id="icon-conveyor"><title>conveyor</title><path fill="#E2574C" d="M50 0c27.614 0 50 22.386 50 50s-22.386 50-50 50S0 77.614 0 50 22.386 0 50 0z"/><path fill="#324D5B" d="M.645 42C.225 44.605 0 47.275 0 50c0 8.698 2.225 16.875 6.13 24h87.74c3.905-7.125 6.13-15.302 6.13-24 0-2.725-.226-5.395-.645-8H.645z"/><path fill="#475F6C" d="M8.57 78c5.36 7.912 12.924 14.205 21.812 18H69.62c8.887-3.795 16.452-10.088 21.81-18H8.57z"/><path fill="#3E5765" d="M65 42L45 74h18l20-32H65zm-16 0L29 74h8l20-32h-8z"/><path fill="#FAFAFA" d="M37 37v10L27 63l-1-10 9-16h2z"/><path fill="#EDEDED" d="M21 37h16L27 53H11l10-16z"/><path fill="#BEBEBE" d="M27 53H11v10h16V53z"/><path fill="#FAFAFA" d="M69 37v10L59 63l-1-10 9-16h2z"/><path fill="#EDEDED" d="M53 37h16L59 53H43l10-16z"/><path fill="#BEBEBE" d="M59 53H43v10h16V53z"/><path fill="#7D8D95" d="M21 56.757C20.587 56.3 19.96 56 19.25 56c-1.242 0-2.25.896-2.25 2s1.008 2 2.25 2c.71 0 1.337-.3 1.75-.756-.58-.186-1-.666-1-1.244s.42-1.06 1-1.243zM52 58c0-.578.42-1.06 1-1.243-.413-.458-1.04-.757-1.75-.757-1.242 0-2.25.896-2.25 2s1.008 2 2.25 2c.71 0 1.337-.3 1.75-.756-.58-.185-1-.666-1-1.244zm10.64-19H55.91c-.504 0-.973.254-1.237.672l-6.548 9.178c-.596.94.1 2.15 1.237 2.15h6.727c.506 0 .974-.254 1.238-.672l6.548-9.178c.596-.94-.1-2.15-1.237-2.15zm-8.776 10c-.27.553-.873 1-1.35 1s-.648-.447-.38-1 .873-1 1.35-1 .65.447.38 1zM30.64 39H23.91c-.504 0-.973.254-1.237.672l-6.548 9.178c-.596.94.1 2.15 1.237 2.15h6.727c.506 0 .974-.254 1.238-.672l6.548-9.178c.596-.94-.1-2.15-1.237-2.15zm-8.776 10c-.27.553-.873 1-1.35 1s-.648-.447-.38-1 .873-1 1.35-1 .65.447.38 1z"/><path fill="#EFC75E" d="M75 54h24.826c.104-1.32.174-2.652.174-4 0-9.168-2.48-17.754-6.787-25.14L75 54z"/><path d="M6.13 74c.754 1.373 1.566 2.71 2.44 4h82.86c.874-1.29 1.687-2.627 2.44-4H6.13zm24.25 22c6.025 2.572 12.655 4 19.62 4s13.595-1.428 19.62-4H30.38z" fill="#283E49"/><g fill="#394C56"><path d="M20.95 90.682C21.595 89.972 22 89.036 22 88c0-2.21-1.79-4-4-4-1.284 0-2.413.615-3.146 1.556 1.89 1.867 3.93 3.577 6.095 5.126z"/><circle cx="50" cy="88" r="4"/><circle cx="34" cy="88" r="4"/><path d="M82 84c-2.21 0-4 1.79-4 4 0 1.036.404 1.972 1.05 2.682 2.166-1.55 4.207-3.26 6.096-5.126C84.413 84.616 83.283 84 82 84z"/><circle cx="66" cy="88" r="4"/></g><g fill="#70838D"><path d="M20.33 90.24C21.336 89.515 22 88.338 22 87c0-2.21-1.79-4-4-4-1.544 0-2.87.885-3.536 2.166 1.82 1.84 3.78 3.535 5.865 5.074z"/><circle cx="34" cy="87" r="4"/><path d="M85.535 85.166C84.87 83.886 83.545 83 82 83c-2.21 0-4 1.79-4 4 0 1.338.663 2.515 1.67 3.24 2.086-1.54 4.047-3.235 5.865-5.074z"/><circle cx="66" cy="87" r="4"/><circle cx="50" cy="87" r="4"/></g><path fill="#405561" d="M89.993 80c.493-.656.976-1.32 1.437-2H8.57c.462.68.945 1.344 1.438 2h79.985z"/><path fill="#CBA950" d="M75 93.294C88.853 85.277 98.494 70.814 99.826 54H75v39.294z"/></symbol><symbol viewBox="0 0 100 100" id="icon-demoltion"><title>demoltion</title><path fill="#E2574C" d="M50 0c27.614 0 50 22.386 50 50s-22.386 50-50 50S0 77.614 0 50 22.386 0 50 0z"/><path fill="#CB4E44" d="M78.604 9c-1.005-.703-2.034-1.372-3.092-2H63V1.717c-.66-.177-1.328-.337-2-.488V7H39V1.23c-.67.15-1.34.31-2 .487V7H24.488c-1.057.628-2.087 1.297-3.092 2H27v10H10.785c-.518.654-1.02 1.32-1.503 2H13v10H3.747c-.27.66-.534 1.326-.778 2H27v10H.498c-.093.664-.182 1.328-.25 2H13v10H.25c.067.672.156 1.337.25 2H27v10H2.97c.243.675.505 1.34.777 2H13v10H9.282c.484.68.985 1.347 1.503 2H27v10h-5.604c1.005.702 2.035 1.37 3.092 2H37v5.282c.66.178 1.33.338 2 .49V93h22v5.77c.672-.15 1.34-.31 2-.488V93h12.512c1.058-.63 2.087-1.298 3.092-2H77V81h12.215c.518-.653 1.02-1.32 1.503-2H87V69h9.253c.27-.66.534-1.325.778-2H77V57h22.502c.093-.663.182-1.328.248-2H87V45h12.75c-.066-.672-.155-1.336-.248-2H77V33h20.03c-.243-.674-.506-1.34-.777-2H87V21h3.718c-.484-.68-.985-1.346-1.503-2H77V9h1.604zM53 9h22v10H53V9zM39 69h22v10H39V69zm-10-2V57h22v10H29zm24 0V57h22v10H53zm8-12H39V45h22v10zM29 43V33h22v10H29zm24 0V33h22v10H53zm8-12H39V21h22v10zM29 9h22v10H29V9zM15 31V21h22v10H15zm0 24V45h22v10H15zm0 24V69h22v10H15zm36 12H29V81h22v10zm24 0H53V81h22v10zm10-22v10H63V69h22zm0-24v10H63V45h22zm0-24v10H63V21h22z"/><path fill="#C04A41" d="M45 36c11.598 0 21 9.402 21 21s-9.402 21-21 21-21-9.402-21-21 9.402-21 21-21z"/><path fill="#AD423A" d="M26.53 67c.376.693.8 1.356 1.25 2H37v7.413c.65.27 1.318.503 2 .706V69h22v1.583c.938-1.104 1.773-2.3 2.47-3.583H53V57h13c0-.675-.04-1.34-.1-2H63v-8.775c-.69-1.152-1.487-2.23-2.38-3.225H53v-5.413c-.65-.27-1.318-.502-2-.706V43H29.38c-.57.636-1.11 1.298-1.6 2H37v10H24.1c-.06.66-.1 1.325-.1 2h3v10h-.47zM39 45h22v10H39V45zM29 57h22v10H29V57z"/><path fill="#F1CF76" d="M60.69 1.158l-8.128 30.336 3.863 1.035 8.138-30.37C63.293 1.776 62 1.444 60.69 1.16z"/><path fill="#F1ABA6" d="M88.264 39.895l-6.42-6.42-11.998 4.962 4.256 4.255-8.49 4.205 19.79.07-4.953-4.954 7.814-2.118zm-28.52 25.28l5.45 7.82-5.796 1.387 8.175 10.235 8.742-2.09-5.86-5.738 6.746-1.614-17.456-10.002zM30.93 29.854l-10.374-7.902-7.892 4.51 7.045 4.075-6.092 3.48 19.242 5.084-7.162-6.26 5.232-2.988zM11.818 62.987l6.137 3.31-7.174 4 7.953 4.29 10.582-7.73-5.27-2.843 7.31-6.114L11.82 62.99z"/><path d="M54.818 23.074l-.54 2.015 4.145-.012.54-2.015zm-1.297 4.842l-.54 2.015 4.145-.01.54-2.015zm2.596-9.685l-.54 2.016 4.145-.01.54-2.015zm2.578-9.62l-.54 2.015 4.145-.01.538-2.015zm1.298-4.842l-.54 2.015 4.144-.01.54-2.016zm-2.578 9.622l-.54 2.014 4.144-.01.54-2.015z" fill="#DEBF6D"/><path d="M64.685 81h10.07l-2.042-2h-9.626zM29 58.514l-2 .52v2.51l2-1.674zm47.315 24.013L75 81.24v1.602zM29 38.083V35.73l-2-1.75v3.575zm56.402 8.884L85 46.564v.4zM77 35.48l-2 .826V43h-1.52l-4.04 2h13.996l-2-2H77zM13 71.494l2 1.08V69h11.382l2.738-2H29v-.312l-2-1.08V67H16.696L13 69.062zm0-44.836l2 1.155V25.13l-2 1.143zm12.7 6.185L28.925 31H18.903l-3.5 2h10.474zM61 74v2.387l2 2.505v-5.37zm.017-7L63 69.848V69h3.422l-3.49-2z" fill="#E5A7A2"/><path fill="#324D5B" d="M50 29c11.598 0 21 9.402 21 21s-9.402 21-21 21-21-9.402-21-21 9.402-21 21-21z"/><path fill="#3C5663" d="M60 42c1.105 0 2 .896 2 2s-.895 2-2 2c-1.104 0-2-.896-2-2s.896-2 2-2z"/><path fill="#2F4856" d="M53 67c-11.598 0-21-9.402-21-21 0-3.828 1.04-7.406 2.83-10.497C31.228 39.273 29 44.373 29 50c0 11.598 9.402 21 21 21 7.77 0 14.537-4.23 18.17-10.504C64.346 64.496 58.97 67 53 67z"/></symbol><symbol viewBox="0 0 100 100" id="icon-fire extinguisher"><title>fire extinguisher</title><path fill="#EFC75E" d="M50 0c27.614 0 50 22.386 50 50s-22.386 50-50 50S0 77.614 0 50 22.386 0 50 0z"/><path fill="#324D5B" d="M27.717 38.077c-4.845 6.32-2.337 16.27.837 28.868 2.41 9.566 5.034 20.046 4.747 30.188 2.067.732 4.195 1.337 6.378 1.795.586-11.518-2.458-22.997-5.135-33.11-2.653-10.03-5.16-19.505-2.15-23.245 1.47-1.824 4.82-3.005 9.444-2.877l.165-6.688c-6.85-.18-11.53 1.477-14.285 5.07z"/><path fill="#2D4552" d="M35.3 96.133c.288-10.142-2.335-20.62-4.746-30.188-3.174-12.598-5.682-22.55-.837-28.868.84-1.095 1.883-1.99 3.088-2.727-2.115.843-3.816 2.07-5.088 3.727-4.845 6.32-2.337 16.27.837 28.868 2.41 9.566 5.034 20.046 4.747 30.188 2.067.732 4.195 1.337 6.378 1.795.025-.493.035-.986.047-1.48-1.5-.38-2.982-.804-4.424-1.315z"/><path fill="#E2574C" d="M56 48.73V43c0-3.313-2.687-6-6-6s-6 2.687-6 6v5.73C33.092 51.418 25 61.263 25 73v20.294C32.355 97.55 40.89 100 50 100s17.644-2.45 25-6.706V73c0-11.737-8.092-21.582-19-24.27z"/><path fill="#CB4E44" d="M48 48.087v-4.26c-1.92-.34-3.39-1.153-3.846-2.16-.097.43-.154.874-.154 1.333v5.73C33.092 51.418 25 61.263 25 73v20.294c1.924 1.113 3.926 2.105 6 2.96V73c0-12.79 9.61-23.33 22-24.814-.984-.118-1.984-.186-3-.186-.674 0-1.34.034-2 .087z"/><path fill="#4681A0" d="M54.5 33h20c1.933 0 3.5 1.567 3.5 3.5 0 1.934-1.567 3.5-3.5 3.5h-20c-1.933 0-3.5-1.566-3.5-3.5 0-1.933 1.567-3.5 3.5-3.5zm-4.976-.598l20.93-12c1.445-.83 3.293-.337 4.127 1.098s.34 3.27-1.104 4.098l-20.93 12c-1.445.83-3.293.337-4.127-1.098s-.34-3.27 1.104-4.098z"/><path fill="#3F7490" d="M74.573 21.49c-.257.443-.62.834-1.098 1.108l-20.93 12c-1.44.826-3.282.338-4.12-1.087-.517.897-.564 2.03-.007 2.99.834 1.435 2.682 1.927 4.127 1.098l20.93-12c1.444-.83 1.94-2.664 1.105-4.098l-.007-.01zM74.5 37h-20c-1.394 0-2.587-.82-3.15-2-.218.456-.35.96-.35 1.5 0 1.934 1.567 3.5 3.5 3.5h20c1.933 0 3.5-1.566 3.5-3.5 0-.54-.132-1.044-.35-1.5-.563 1.18-1.756 2-3.15 2z"/><path fill="#fff" d="M50 26c5.522 0 10 4.478 10 10 0 5.523-4.478 10-10 10-5.523 0-10-4.477-10-10 0-5.522 4.477-10 10-10z"/><path fill="#EDEDED" d="M53.58 78.444C61.23 66.256 48.227 61 48.227 61c1.72 2.03.976 6.215-4.134 11.2-9.743 11.292 6.62 15.798 6.62 15.798-1.71-5.04 1.56-7.483 2.87-9.554zm3.828-7.44c.673 1.278-.71 6.632-2.73 9.068-3.748 4.534-2.56 6.83-2.27 7.898.036-.103.49-.603 3.985-3.05 7.466-5.212 1.015-13.916 1.015-13.916z"/><path fill="#324D5B" d="M52.478 32.158c.492.318.666 1.013.388 1.552l-2.858 6.484c-.14.603-.7.956-1.247.788-.547-.167-.876-.79-.735-1.395l3.06-7.03c.275-.537.9-.716 1.393-.4z"/><path fill="#CCD0D2" d="M50 38c3.313 0 6 1.344 6 3 0 1.657-2.687 3-6 3s-6-1.343-6-3c0-1.656 2.687-3 6-3z"/><path fill="#EDEDED" d="M50 28.5c4.136 0 7.5 3.364 7.5 7.5s-3.364 7.5-7.5 7.5-7.5-3.364-7.5-7.5 3.364-7.5 7.5-7.5m0-2.5c-5.523 0-10 4.478-10 10 0 5.523 4.477 10 10 10 5.522 0 10-4.477 10-10 0-5.522-4.478-10-10-10z"/></symbol><symbol viewBox="0 0 100 100" id="icon-helmet"><title>helmet</title><path fill="#4681A0" d="M50 0c27.614 0 50 22.386 50 50s-22.386 50-50 50S0 77.614 0 50 22.386 0 50 0z"/><path fill="#3F7490" d="M95.827 70H4.172C11.89 87.656 29.5 100 50 100s38.11-12.344 45.827-30z"/><path fill="#EDEDED" d="M76 77H24c-2.21 0-4-1.79-4-4V49c0-16.568 13.432-30 30-30s30 13.432 30 30v24c0 2.21-1.79 4-4 4z"/><path fill="#fff" d="M80 55H46c-2.762 0-5-2.238-5-5 0-1.633.795-3.07 2.006-3.982L43 46l22.617-22.617c-.294-.18-.595-.35-.896-.52l-22.427 22.43-.06.06C40.814 46.502 40 48.184 40 50c0 3.31 2.69 6 6 6h34v-1z"/><path fill="#93D3E8" d="M80 49c0-10.847-5.758-20.348-14.383-25.617L43 46l.006.018C41.796 46.93 41 48.368 41 50c0 2.762 2.238 5 5 5h34v-6z"/><path fill="#fff" d="M46 47c1.657 0 3 1.343 3 3s-1.343 3-3 3-3-1.343-3-3 1.343-3 3-3z"/><path fill="#A9DCED" d="M80 55v-6c0-10.847-5.758-20.348-14.383-25.617L62 27c7.286 5.473 12 14.186 12 24v4h6z"/><path fill="#EFC75E" d="M20 70v3c0 2.21 1.79 4 4 4h52c2.21 0 4-1.79 4-4v-8H20v5z"/><path fill="#D5D5D5" d="M30 73V49c0-14.864 10.813-27.196 25-29.577-1.627-.274-3.296-.423-5-.423-16.568 0-30 13.432-30 30v24c0 2.21 1.79 4 4 4h10c-2.21 0-4-1.79-4-4z"/><path fill="#D7B354" d="M30 73v-8H20v8c0 2.21 1.79 4 4 4h10c-2.21 0-4-1.79-4-4zm46 1H24c-2.21 0-4-1.79-4-4v3c0 2.21 1.79 4 4 4h52c2.21 0 4-1.79 4-4v-3c0 2.21-1.79 4-4 4z"/><path fill="#C1A14B" d="M30.142 74H24c-2.21 0-4-1.79-4-4v3c0 2.21 1.79 4 4 4h10c-1.86 0-3.412-1.278-3.858-3z"/><path fill="#E2574C" d="M29.5 48c2.485 0 4.5 2.015 4.5 4.5S31.985 57 29.5 57 25 54.985 25 52.5s2.015-4.5 4.5-4.5z"/><path fill="#CB4E44" d="M31.5 56c-2.485 0-4.5-2.015-4.5-4.5 0-1.37.626-2.583 1.592-3.408-2.05.42-3.592 2.233-3.592 4.408 0 2.485 2.015 4.5 4.5 4.5 1.115 0 2.122-.42 2.908-1.092-.294.06-.597.092-.908.092z"/></symbol><symbol viewBox="0 0 100 100" id="icon-icecream"><title>icecream</title><path fill="#EDEDED" d="M50 0C22.387 0 0 22.386 0 50s22.387 50 50 50c27.614 0 50-22.386 50-50S77.614 0 50 0z"/><path fill="#E8B873" d="M48 54h4c1.104 0 2 .895 2 2v28c0 1.103-.896 2-2 2h-4c-1.104 0-2-.897-2-2V56c0-1.105.896-2 2-2z"/><path fill="#D0A567" d="M46 70h8l-8 8v-8z"/><path fill="#EFC75E" d="M62 70H38c-3.313 0-6-2.687-6-6V28c0-6.628 5.373-12 12-12h12c6.627 0 12 5.372 12 12v36c0 3.313-2.687 6-6 6z"/><path fill="#E2574C" d="M32 61v3c0 3.313 2.687 6 6 6h24c3.313 0 6-2.687 6-6V43H32v18z"/><path fill="#CBA950" d="M43.5 26c-1.934 0-3.5 1.565-3.5 3.5v29c0 1.933 1.566 3.5 3.5 3.5s3.5-1.567 3.5-3.5v-29c0-1.935-1.566-3.5-3.5-3.5zm13 0c-1.934 0-3.5 1.565-3.5 3.5v29c0 1.933 1.566 3.5 3.5 3.5s3.5-1.567 3.5-3.5v-29c0-1.935-1.566-3.5-3.5-3.5z"/><path d="M43.5 62c1.934 0 3.5-1.567 3.5-3.5V43h-7v15.5c0 1.933 1.566 3.5 3.5 3.5zM53 43v15.5c0 1.933 1.566 3.5 3.5 3.5s3.5-1.567 3.5-3.5V43h-7z" fill="#C04A41"/></symbol><symbol viewBox="0 0 100 100" id="icon-lamp"><title>lamp</title><path fill="#324D5B" d="M50 0c27.614 0 50 22.386 50 50 0 27.615-22.386 50-50 50S0 77.615 0 50C0 22.387 22.386 0 50 0z"/><path fill="#EDEDED" d="M52 .05C51.336.026 50.67 0 50 0s-1.335.024-2 .05V30h4V.05z"/><path fill="#CACACA" d="M48 30h2V0c-.67 0-1.335.024-2 .05V30z"/><path fill="#5B717C" d="M89.816 80.235L77.626 54H22.437L10.2 80.257C19.335 92.252 33.76 100 50 100c16.25 0 30.684-7.757 39.816-19.765z"/><path fill="#3DB39E" d="M49.988 66.01c-13.966 0-28.997-3.784-28.997-12.094 0-15.402 13.01-27.932 28.998-27.932 15.988 0 28.996 12.53 28.996 27.932 0 8.31-15.03 12.094-28.996 12.094z"/><path fill="#37A18E" d="M30.99 51.916c0 8.31 15.032 12.094 28.998 12.094 2.757 0 5.55-.153 8.268-.453-5.292 1.652-11.883 2.453-18.268 2.453-13.966 0-28.997-3.784-28.997-12.094 0-15.142 12.574-27.498 28.19-27.912-10.65 4.137-18.19 14.19-18.19 25.912z"/><path fill="#F4F0D3" d="M78.562 56.23c-2.586-4.947-16-7.222-28.557-7.222-12.588 0-26.034 2.285-28.577 7.253 2.55 6.68 15.984 9.75 28.56 9.75 12.596 0 26.056-3.08 28.574-9.78z"/><path fill="#E6E2C7" d="M50.005 49.007c-12.588 0-26.034 2.285-28.577 7.253l.065.147c5.26-2.997 15.648-4.4 25.512-4.4 12.558 0 25.97 2.274 28.557 7.22-.165.44-.38.86-.634 1.27 1.748-1.213 3.02-2.632 3.634-4.27-2.586-4.945-16-7.22-28.557-7.22z"/><path fill="#EFC75E" d="M50 59c-4.97 0-9-4.03-9-9 0-.2.03-.394.043-.59 2.934-.265 5.97-.402 8.962-.402 2.99 0 6.022.138 8.952.4.014.197.043.39.043.592 0 4.97-4.03 9-9 9z"/><path fill="#E3BD59" d="M53 57c-4.562 0-8.32-3.396-8.91-7.796-1.02.06-2.044.114-3.047.205-.014.196-.043.39-.043.59 0 4.97 4.03 9 9 9 2.5 0 4.76-1.02 6.392-2.666-1.047.426-2.19.666-3.392.666z"/></symbol><symbol viewBox="0 0 100 100" id="icon-luggage"><title>luggage</title><path fill="#EFC75E" d="M50 0c27.614 0 50 22.386 50 50s-22.386 50-50 50S0 77.614 0 50 22.386 0 50 0z"/><path fill="#E2574C" d="M72 40H28c-5.522 0-10 4.478-10 10v38.413C26.67 95.645 37.826 100 50 100s23.328-4.355 32-11.587V50c0-5.522-4.478-10-10-10z"/><path fill="#CB4E44" d="M25 51v42.294c.98.567 1.98 1.108 3 1.61V51c0-2.21 1.79-4 4-4h-3c-2.21 0-4 1.79-4 4z"/><path fill="#F19088" d="M71 46H29c-2.757 0-5 2.243-5 5v41.715c.656.4 1.324.784 2 1.154V51c0-1.654 1.346-3 3-3h42c1.654 0 3 1.346 3 3v42.87c.676-.37 1.344-.755 2-1.155V51c0-2.757-2.243-5-5-5z"/><path fill="#CB4E44" d="M18 50v38.413c.968.808 1.972 1.57 3 2.305V50c0-5.522 4.478-10 10-10h-3c-5.522 0-10 4.478-10 10z"/><path fill="#F1ABA6" d="M34.5 55h31c.828 0 1.5.672 1.5 1.5s-.672 1.5-1.5 1.5h-31c-.828 0-1.5-.672-1.5-1.5s.672-1.5 1.5-1.5z"/><path fill="#324D5B" d="M68.5 28H63v12h-3V28H40v12h-3V28h-5.5c-1.38 0-2.5-1.12-2.5-2.5s1.12-2.5 2.5-2.5h37c1.38 0 2.5 1.12 2.5 2.5S69.88 28 68.5 28z"/><path fill="#F2F1EF" d="M58.664 69.334c-.77-.77-2.7-.088-3.625.836l-3.516 3.52c-.343-.32-8.883-3.364-9.19-3.06l-1.113 1.114c-.307.307-.307.805 0 1.112l6.243 4.896-2.46 2.46c-.187.19-.422.478-.67.82l-.1-.1c-.155-.155-2.397-.438-2.554-.282l-.57.566c-.155.157-.155.41 0 .566l.28.28 1.502 1.498c-.298.742-.407 1.386-.12 1.674.288.288.933.178 1.676-.122l1.48 1.478.294.293c.156.157.41.157.567 0l.567-.566c.156-.156-.127-2.394-.284-2.55l-.097-.097c.34-.247.627-.48.813-.667l2.46-2.462 4.897 6.223c.308.307.807.307 1.114 0l1.115-1.112c.308-.307-2.747-8.845-3.062-9.176l3.512-3.515c.926-.924 1.61-2.856.84-3.626z"/><path d="M37 28h3v3h-3zm23 0h3v3h-3z" fill="#233640"/><path fill="#2D4552" d="M70.95 26h-41.9c.232 1.14 1.24 2 2.45 2h37c1.21 0 2.218-.86 2.45-2z"/></symbol><symbol viewBox="0 0 100 100" id="icon-microscope"><title>microscope</title><path fill="#2EA9D3" d="M50 0c27.614 0 50 22.386 50 50s-22.386 50-50 50S0 77.614 0 50 22.386 0 50 0z"/><path fill="#2998BD" d="M94.904 72H5.096c8.14 16.582 25.186 28 44.904 28s36.765-11.418 44.904-28z"/><path fill="#324D5B" d="M72 84h-2s-1.03-.287-1.03-1.034c0-2.25-2.165-3.966-4.47-3.966h-29c-2.314 0-4.473 1.734-4.473 3.996C31.027 83.72 30 84 30 84h-2c-.553 0-1-.447-1-1v-9h46v9c0 .553-.447 1-1 1zM43 17h6v3h-6v-3z"/><path fill="#F2F1EF" d="M42 15h8c.553 0 1 .447 1 1s-.447 1-1 1h-8c-.553 0-1-.447-1-1s.447-1 1-1z"/><path fill="#324D5B" d="M45 50h2c1.656 0 3 1.344 3 3s-1.344 3-3 3h-2c-1.656 0-3-1.344-3-3s1.344-3 3-3z"/><path fill="#F2F1EF" d="M63.537 70.014c.493-.434.986-.88 1.438-1.336 4.31-4.387 7.012-10.445 7.012-17.125 0-3.16-.62-6.2-1.715-8.99-4.703-10.59-12.896-13.477-16.26-14.56.04.104-.08 5.778 0 5.833 1.288 1.52 7.715 3.19 10.984 10.865.837 2.096 1.287 4.42 1.287 6.853 0 2.878-.644 5.604-1.802 8.047l-2.165 3.443c-.43.542-.88 1.074-1.372 1.552-3.282 3.345-7.85 5.42-12.89 5.42h-.063 15.547zM26 69h48c1.657 0 3 1.344 3 3s-1.343 3-3 3H26c-1.656 0-3-1.344-3-3s1.344-3 3-3zm13-49h14c1.104 0 2 .896 2 2v29c0 1.104-.896 2-2 2H39c-1.104 0-2-.896-2-2V22c0-1.104.896-2 2-2z"/><path fill="#D9D8D7" d="M39 20c-1.104 0-2 .896-2 2v29c0 1.104.896 2 2 2h7V20h-7z"/><path fill="#fff" d="M54.5 26c3.037 0 5.5 2.463 5.5 5.5S57.537 37 54.5 37 49 34.537 49 31.5s2.463-5.5 5.5-5.5z"/><path fill="#324D5B" d="M54.5 28c1.93 0 3.5 1.57 3.5 3.5S56.43 35 54.5 35 51 33.43 51 31.5s1.57-3.5 3.5-3.5m0-2c-3.037 0-5.5 2.463-5.5 5.5s2.463 5.5 5.5 5.5 5.5-2.463 5.5-5.5-2.463-5.5-5.5-5.5z"/><path fill="#D9D8D7" d="M74 73H26c-1.304 0-2.403-.838-2.816-2-.112.314-.184.647-.184 1 0 1.656 1.344 3 3 3h48c1.657 0 3-1.344 3-3 0-.353-.072-.686-.184-1-.413 1.162-1.51 2-2.816 2zM53 48H39c-1.104 0-2-.896-2-2v5c0 1.104.896 2 2 2h14c1.104 0 2-.896 2-2v-5c0 1.104-.896 2-2 2z"/><path fill="#C3C2C1" d="M39 48c-1.104 0-2-.896-2-2v5c0 1.104.896 2 2 2h7v-5h-7z"/></symbol><symbol viewBox="0 0 100 100" id="icon-passport"><title>passport</title><path fill="#EFC75E" d="M50 0c27.614 0 50 22.386 50 50s-22.386 50-50 50S0 77.614 0 50 22.386 0 50 0z"/><path fill="#2B414D" d="M76 27H29c-3.866 0-7 3.135-7 7v57.43c7.99 5.41 17.625 8.57 28 8.57 12.65 0 24.193-4.707 33-12.453V34c0-3.865-3.134-7-7-7z"/><path fill="#CCD0D2" d="M74 27H27c-3.866 0-7 3.135-7 7v56c8.357 6.278 18.743 10 30 10 11.714 0 22.478-4.04 31-10.785V34c0-3.865-3.134-7-7-7z"/><path fill="#324D5B" d="M71 25H25c-3.866 0-7 3.134-7 7v56.413C26.67 95.645 37.826 100 50 100c10.375 0 20.01-3.16 28-8.57V32c0-3.866-3.134-7-7-7z"/><path fill="#2D4552" d="M18 32v56.413c.968.808 1.972 1.57 3 2.305v-58.72c0-3.864 3.134-7 7-7h-3c-3.866 0-7 3.136-7 7z"/><path fill="#99A6AD" d="M53.077 65.132h4.135c-1.61-2.124-4.045-3.84-6.89-4.48 1.102 1.275 2.06 2.817 2.755 4.48m1.438 6.702h5.15c-.103-1.948-.666-3.774-1.58-5.375l-4.51.006c.55 1.672.877 3.478.94 5.368m-.94 6.694l4.51.006c.914-1.6 1.477-3.426 1.58-5.374h-5.15c-.063 1.89-.39 3.697-.94 5.368m-.498 1.335c-.696 1.662-1.653 3.203-2.754 4.48 2.844-.643 5.278-2.358 6.89-4.48h-4.136zm-1.433 0H48.16v4.796c1.42-1.268 2.617-2.906 3.484-4.797m1.553-6.703H48.16v5.374h4.02c.598-1.678.95-3.48 1.017-5.374m-1.018-6.7h-4.02v5.375h5.037c-.066-1.894-.42-3.697-1.018-5.374m-.536-1.328c-.866-1.89-2.063-3.53-3.483-4.797v4.797h3.484zm-8.284 0h3.482v-4.797c-1.418 1.268-2.616 2.906-3.482 4.797m-1.553 6.702h5.036V66.46h-4.02c-.597 1.678-.95 3.48-1.016 5.374m1.017 6.7h4.02V73.16h-5.037c.066 1.894.42 3.696 1.017 5.373m.536 1.33c.865 1.89 2.063 3.528 3.482 4.796v-4.797H43.36zm-1.433 0h-4.135c1.61 2.122 4.045 3.838 6.89 4.48-1.102-1.277-2.06-2.818-2.755-4.48M40.49 73.16h-5.152c.104 1.947.666 3.774 1.58 5.374l4.51-.006c-.55-1.67-.876-3.478-.94-5.368m.94-6.694l-4.51-.006c-.914 1.6-1.476 3.427-1.58 5.375h5.15c.064-1.89.39-3.697.94-5.37m-3.636-1.333h4.135c.695-1.663 1.653-3.205 2.755-4.48-2.845.64-5.28 2.356-6.89 4.48m-3.79 7.365c0-7.452 6.045-13.494 13.5-13.494S61 65.045 61 72.497c0 7.453-6.044 13.495-13.498 13.495-7.455 0-13.5-6.042-13.5-13.495M68 38H28c-.553 0-1 .447-1 1v2c0 .552.447 1 1 1h40c.553 0 1-.448 1-1v-2c0-.553-.447-1-1-1zm-5 8H33c-.553 0-1 .446-1 1v2c0 .552.447 1 1 1h30c.553 0 1-.448 1-1v-2c0-.554-.447-1-1-1z"/></symbol><symbol viewBox="0 0 100 100" id="icon-presentation"><title>presentation</title><path fill="#324D5B" d="M50 0c27.614 0 50 22.386 50 50s-22.386 50-50 50S0 77.614 0 50 22.386 0 50 0z"/><path fill="#2B424D" d="M21 25v52h71.073C97.083 69.21 100 59.95 100 50c0-9.11-2.45-17.644-6.706-25H21z"/><path fill="#ECF0F1" d="M21 23v52h72.294C97.55 67.644 100 59.11 100 50c0-9.95-2.918-19.21-7.927-27H21z"/><path fill="#BFBFBF" d="M39.017 62.01h19.98v2.982h-19.98v-2.98z"/><path fill="#26A6D1" d="M79.018 51.014h3.98v3.98h-3.98v-3.98z"/><path fill="#F4B459" d="M79.018 56.014h3.98v3.98h-3.98v-3.98z"/><path fill="#E2574C" d="M79.018 61.014h3.98v3.98h-3.98v-3.98z"/><path fill="#BFBFBF" d="M79.018 32.01v2.982h11.98v-2.98h-11.98zm0 7.92h11.98v-2.92h-11.98v2.92zm7.978 2.08h-7.98v2.92h7.98v-2.92zM83.97 54.996h6.053v-3.98H83.97v3.98zm0 5h6.053v-3.98H83.97v3.98zm0 5h6.053v-3.98H83.97v3.98z"/><path fill="#26A6D1" d="M48 32.988c-5.605.508-10 5.233-10 10.995S42.395 54.47 48 54.98V32.987z"/><path fill="#E2574C" d="M50 44.99v9.99c5.298-.477 9.514-4.693 9.99-9.99H50z"/><path fill="#F4B459" d="M50 43.01V32.988c5.298.48 9.514 4.71 9.99 10.023H50z"/><path fill="#576E79" d="M92.073 23c-3.33-5.18-7.584-9.704-12.538-13.337L21 23h71.073z"/><path fill="#233640" d="M28.334 85.8c-.622-.757-.622-.757-.205-3.563.71-3.14 1.355-1.19 2.373-7.457.854-5.262-.968-9.783-6.503-9.783-5.534 0-7.357 4.52-6.503 9.783 1.018 6.266 1.662 4.316 2.374 7.457.418 2.807.418 2.807-.204 3.562-.585.71-1.54 1.26-2.696 1.72 4.634 4.084 10.024 7.33 15.942 9.48H45s-.493-2.993-.6-3.534c-.888-4.572-13.118-4.087-16.066-7.667z"/><path fill="#44545C" d="M21 65.996c5.535 0 7.357 4.52 6.503 9.783-1.017 6.265-1.662 4.315-2.374 7.456-.418 2.807-.418 2.807.204 3.562 2.948 3.58 15.178 3.095 16.067 7.667.066.335.28 1.612.434 2.535H45s-.493-2.994-.6-3.535c-.888-4.572-13.118-4.087-16.066-7.667-.622-.756-.622-.756-.205-3.562.71-3.14 1.355-1.19 2.373-7.457.854-5.263-.968-9.784-6.503-9.784-1.595 0-2.872.385-3.875 1.046.282-.026.57-.046.875-.046z"/><path fill="#233640" d="M79.51 84.898c-.504-.613-.504-.613-.167-2.895.576-2.552 1.1-.967 1.92-6.06.693-4.273-.782-7.947-5.263-7.947s-5.955 3.674-5.264 7.948c.822 5.092 1.345 3.507 1.92 6.06.338 2.28.338 2.28-.165 2.894-2.385 2.91-12.285 2.516-13.006 6.23C59.4 91.567 59 94 59 94l7.53 3.19c6.413-2.247 12.233-5.754 17.15-10.24-1.802-.503-3.39-1.1-4.17-2.052z"/><path fill="#44545C" d="M69.894 86.45c-2.954 1.073-7.22 1.574-9.268 3.073 2.983-1.083 7.265-1.578 9.268-3.073zm9.615-1.552c-.504-.613-.504-.613-.167-2.895.576-2.552 1.1-.967 1.92-6.06.693-4.273-.782-7.947-5.263-7.947-1.533 0-2.706.438-3.568 1.175.476-.112.997-.174 1.568-.174 4.48 0 5.956 3.674 5.264 7.948-.822 5.092-1.345 3.507-1.92 6.06-.338 2.28-.338 2.28.165 2.894.872 1.064 2.753 1.686 4.82 2.23.455-.388.91-.775 1.352-1.178-1.804-.503-3.393-1.1-4.173-2.052z"/><path fill="#233640" d="M32.666 96.91C38.066 98.906 43.906 100 50 100c7.72 0 15.027-1.752 21.555-4.875-4.135-1.032-8.038-2.157-9.76-4.228-.902-1.086-.902-1.086-.297-5.12 1.033-4.516 1.97-1.713 3.447-10.72 1.24-7.563-1.407-14.063-9.445-14.063s-10.685 6.5-9.445 14.064c1.478 9.006 2.414 6.203 3.447 10.72.605 4.033.605 4.033-.297 5.12-2.68 3.222-10.642 4.154-16.54 6.012z"/><path fill="#44545C" d="M61.795 90.897c-.902-1.086-.902-1.086-.297-5.12 1.033-4.516 1.97-1.713 3.447-10.72 1.24-7.563-1.407-14.063-9.445-14.063-2.055 0-3.752.43-5.128 1.188.667-.112 1.365-.188 2.128-.188 8.038 0 10.686 6.5 9.445 14.064-1.48 9.006-2.414 6.203-3.447 10.72-.605 4.033-.605 4.033.297 5.12 1.787 2.148 5.925 3.278 10.232 4.344.854-.352 1.698-.72 2.527-1.117-4.134-1.032-8.037-2.157-9.76-4.228z"/></symbol><symbol viewBox="0 0 100 100" id="icon-server"><title>server</title><path fill="#E2574C" d="M50 0c27.614 0 50 22.386 50 50s-22.386 50-50 50S0 77.614 0 50 22.386 0 50 0z"/><path fill="#DADFE1" d="M85 72H15v13.695C24.02 94.54 36.37 100 50 100s25.98-5.46 35-14.305V72zm0-17H15l.002 19.217c0 3.746 6.366 6.782 14.22 6.782h39.372c9.062 0 16.404-3.504 16.404-7.826C84.998 82.55 85 55 85 55zm0-13H15s.002 23.55.002 15.217c0 3.746 6.082 6.782 13.583 6.782H67.86C77.328 64 85 60.495 85 56.173V42z"/><path d="M75 93.294c3.65-2.112 7.01-4.667 10-7.6V41H75v52.294zm-60-7.6c2.99 2.933 6.35 5.487 10 7.6V43H15v42.694z" fill="#E1E5E7"/><path fill="#F2F1EF" d="M71.688 33.497c-.96-4.76-9.27-8.497-19.5-8.497-7.917 0-14.695 2.023-17.82 5.24-.94-.144-1.92-.242-2.958-.242-5.437 0-9.844 2.322-9.844 4.914 0 .516.122 1.315.444 1.778-4.228 1.176-7.007 3.022-7.007 5.525 0 3.746 6.366 6.782 14.22 6.782V49h39.372C77.657 49 85 45.495 85 41.172c-.002-3.816-5.733-6.985-13.312-7.676z"/><path fill="#9ECEC7" d="M53.5 54c-.828 0-1.5.672-1.5 1.5s.672 1.5 1.5 1.5 1.5-.672 1.5-1.5-.672-1.5-1.5-1.5zm0 17c-.828 0-1.5.672-1.5 1.5s.672 1.5 1.5 1.5 1.5-.672 1.5-1.5-.672-1.5-1.5-1.5zm12 17c-.828 0-1.5.672-1.5 1.5s.672 1.5 1.5 1.5 1.5-.672 1.5-1.5-.672-1.5-1.5-1.5zm-12 0c-.828 0-1.5.672-1.5 1.5s.672 1.5 1.5 1.5 1.5-.672 1.5-1.5-.672-1.5-1.5-1.5z"/><path fill="#3DB39E" d="M59.5 54c-.828 0-1.5.672-1.5 1.5s.672 1.5 1.5 1.5 1.5-.672 1.5-1.5-.672-1.5-1.5-1.5zm6 3c.828 0 1.5-.672 1.5-1.5s-.672-1.5-1.5-1.5-1.5.672-1.5 1.5.672 1.5 1.5 1.5zm-6 14c-.828 0-1.5.672-1.5 1.5s.672 1.5 1.5 1.5 1.5-.672 1.5-1.5-.672-1.5-1.5-1.5zm6 0c-.828 0-1.5.672-1.5 1.5s.672 1.5 1.5 1.5 1.5-.672 1.5-1.5-.672-1.5-1.5-1.5zm-6 17c-.828 0-1.5.672-1.5 1.5s.672 1.5 1.5 1.5 1.5-.672 1.5-1.5-.672-1.5-1.5-1.5z"/><path fill="#C4C8CA" d="M45 53H30c-.552 0-1 .447-1 1v1c0 .553.448 1 1 1h15c.552 0 1-.447 1-1v-1c0-.553-.448-1-1-1zm0 4H30c-.552 0-1 .447-1 1v1c0 .553.448 1 1 1h15c.552 0 1-.447 1-1v-1c0-.553-.448-1-1-1zm0 13H30c-.552 0-1 .447-1 1v1c0 .553.448 1 1 1h15c.552 0 1-.447 1-1v-1c0-.553-.448-1-1-1zm0 4H30c-.552 0-1 .447-1 1v1c0 .553.448 1 1 1h15c.552 0 1-.447 1-1v-1c0-.553-.448-1-1-1zm0 13H30c-.552 0-1 .447-1 1v1c0 .553.448 1 1 1h15c.552 0 1-.447 1-1v-1c0-.553-.448-1-1-1zm0 4H30c-.552 0-1 .447-1 1v1c0 .553.448 1 1 1h15c.552 0 1-.447 1-1v-1c0-.553-.448-1-1-1z"/><path fill="#CECDCB" d="M50 32c-5.523 0-10 1.976-10 5s4.477 5 10 5 10-2.238 10-5c0-2.76-4.477-5-10-5zm4.916 3.845l-5.716 3.13c-.238.13-.56.175-.87.155-.35.05-.737.01-1.01-.142l-2.252-1.232c-.414-.226-.414-.592 0-.818.413-.226 1.083-.226 1.496 0l1.687.924 5.175-2.832c.412-.226 1.08-.226 1.49 0 .413.224.413.59 0 .815z"/><path fill="#AEB2B4" d="M85 72l-.002 3.12v-1.946c0 4.322-7.342 7.825-16.404 7.825H29.22c-7.852 0-14.218-3.037-14.218-6.783v1.57V72H15v5.86c2.47 2.794 7.773 4.64 14.22 4.64h39.374c7.436 0 13.668-2.25 16.406-5.54V72zm0-17l-.002 3.38v-2.206c0 4.322-7.67 7.825-17.14 7.825H28.585C21.084 64 15 60.962 15 57.216V59v-4 5.865c2.417 2.765 7.527 4.634 13.584 4.634H67.86c7.896 0 14.346-2.217 17.14-5.537V55z"/><path d="M84.998 58.38v-2.206c0 3.157-4.102 5.87-9.998 7.107v1.556c4.548-.892 8.11-2.63 10-4.873V55l-.002 3.38zM25 65.27v-1.517c-5.76-.786-9.998-3.41-9.998-6.536v1.707V55H15v5.865c1.922 2.198 5.55 3.826 10 4.404zM84.998 74.896v-1.722c0 3.238-4.12 6.016-9.998 7.206v1.522c4.507-.876 8.098-2.658 10-4.943V72l-.002 2.896zM25 82.216v-1.52c-5.792-.858-9.998-3.435-9.998-6.48v1.5V72H15v5.86c1.905 2.156 5.5 3.74 10 4.356z" fill="#BFC2C4"/></symbol><symbol viewBox="0 0 100 100" id="icon-skate"><title>skate</title><path fill="#3DB39E" d="M50 0c27.614 0 50 22.386 50 50s-22.386 50-50 50S0 77.614 0 50 22.386 0 50 0z"/><path fill="#324D5B" d="M31.357 26.277L.513 57.12C3.64 79.033 20.966 96.36 42.88 99.486L73.723 68.64c11.31-11.308 10.993-29.96-.706-41.658s-30.35-12.014-41.66-.705z"/><path fill="#283E49" d="M1.013 60.06C5.08 79.978 20.995 95.568 41.07 99.19L73 66.85 33.654 27 1.014 60.06z"/><path d="M29.117 43.025l-2.152-2.158c-1.188-1.19-3.115-1.19-4.304 0l-5.74 5.753c-1.187 1.19-1.187 3.123 0 4.313l2.153 2.158c1.19 1.192 3.116 1.192 4.305 0l5.74-5.752c1.19-1.19 1.19-3.122 0-4.313zm30.016 30.01l-2.157-2.152c-1.19-1.19-3.123-1.19-4.314 0l-.588.587L28.59 47.986 25 51.578l4.984 10.984c.98 1.768 2.205 3.39 3.635 4.818s3.05 2.653 4.817 3.636l9.685 4.395-1.214 1.212c-1.19 1.188-1.19 3.116 0 4.305l2.158 2.152c1.19 1.187 3.123 1.187 4.314 0l5.752-5.74c1.192-1.19 1.192-3.116 0-4.305z" fill="#1C2C33"/><path fill-rule="evenodd" clip-rule="evenodd" fill="#CDCDCD" d="M50.922 59.514l-9.936-9.935c-.784-.785-2.055-.785-2.838 0L26.083 61.642c-.784.784-.784 2.055 0 2.84l9.935 9.935c.784.784 2.055.784 2.84 0L50.92 62.355c.783-.787.783-2.057 0-2.84z"/><path fill="#949494" d="M28.48 59.246l1.504 3.316c.98 1.768 2.205 3.39 3.635 4.818s3.05 2.653 4.817 3.636l2.628 1.192 5.874-5.873-12.775-12.773-5.686 5.684z"/><path fill="#AEAEAE" d="M54.014 71.41L29.59 46.986 26 50.578l4.984 10.984c.98 1.768 2.205 3.39 3.635 4.818 1.43 1.43 3.05 2.653 4.817 3.636L50.42 75l3.594-3.59z"/><path d="M31.493 48.89l-1.903-1.904L26 50.578l1.65 3.64zM46.83 73.37L50.423 75l3.592-3.59-1.9-1.9z" fill="#949494"/><circle fill="#A6A6A6" cx="47.519" cy="60.484" r="1.5"/><circle fill="#A6A6A6" cx="40.516" cy="53.487" r="1.5"/><circle fill="#9C9C9C" cx="36.489" cy="63.488" r="1.511"/><path fill="#DFDFDF" d="M54.014 71.41l-2 2L27.59 48.986l2-2z"/><path d="M31.492 48.89l-1.902-1.904-2 2 2.223 2.224zm22.522 22.52l-1.903-1.902-2.32 1.68 2.224 2.222z" fill="#C3C3C3"/><path fill="#3A96B4" d="M60.133 72.035l-2.157-2.152c-1.19-1.19-3.123-1.19-4.314 0l-5.753 5.74c-1.192 1.187-1.192 3.115 0 4.304l2.157 2.152c1.19 1.187 3.123 1.187 4.314 0l5.753-5.74c1.19-1.19 1.19-3.116 0-4.305zM27.965 39.867c-1.188-1.19-3.115-1.19-4.304 0l-5.74 5.753c-1.187 1.19-1.187 3.123 0 4.314l2.153 2.158c1.19 1.19 3.116 1.19 4.305 0l5.74-5.753c1.188-1.192 1.188-3.124 0-4.315l-2.153-2.158z"/><path d="M47.964 79.982l2.055 2.05 10.054-10.055-2.053-2.05zM20.018 52.036L30.073 41.98l-2.05-2.054L17.968 49.98z" fill="#3589A4"/><path fill="#DBD8BD" d="M51.54 17.998c-7.37 0-14.653 2.75-20.183 8.28L.514 57.127c.145 1.015.312 2.023.518 3.018l32.093-32.1c4.867-4.868 11.407-7.548 18.414-7.548 7.388 0 14.388 2.93 19.71 8.253C76.447 33.95 79.377 40.786 79.5 48c.12 7.186-2.558 13.888-7.544 18.874l-32.09 32.098c.996.204 2.004.37 3.02.516l30.837-30.846c11.31-11.31 10.993-29.96-.706-41.66C67.037 21.003 59.242 18 51.54 18z"/></symbol><symbol viewBox="0 0 100 100" id="icon-smart watch"><title>smart watch</title><path fill="#4681A0" d="M50 0c27.614 0 50 22.386 50 50s-22.386 50-50 50S0 77.614 0 50 22.386 0 50 0z"/><path fill="#3F7490" d="M65 87h1c1.656 0 3-1.343 3-3v-2.46c4.057-1.273 7-5.062 7-9.54V28c0-4.478-2.943-8.266-7-9.54V16c0-1.657-1.344-3-3-3h-1V2.292C60.265.805 55.227 0 50 0c-6.73 0-13.14 1.337-19 3.747V13h-1c-1.656 0-3 1.343-3 3v2.46c-4.057 1.274-7 5.062-7 9.54v44c0 4.478 2.943 8.267 7 9.54V84c0 1.657 1.344 3 3 3h1v9.253C36.86 98.663 43.27 100 50 100c5.227 0 10.265-.805 15-2.292V87zm0-72h1c.55 0 1 .45 1 1v2.05c-.33-.032-.662-.05-1-.05h-1v-3zm0 67h1c.338 0 .67-.018 1-.05V84c0 .552-.45 1-1 1h-1v-3zm-34 3h-1c-.55 0-1-.448-1-1v-2.05c.33.032.662.05 1 .05h1v3zm0-67h-1c-.338 0-.67.018-1 .05V16c0-.55.45-1 1-1h1v3z"/><path fill="#CCD0D2" d="M68 15c.55 0 1 .45 1 1v68c0 .552-.45 1-1 1H32c-.55 0-1-.448-1-1V16c0-.55.45-1 1-1h36m0-2H32c-1.656 0-3 1.343-3 3v68c0 1.657 1.344 3 3 3h36c1.656 0 3-1.343 3-3V16c0-1.657-1.344-3-3-3z"/><path fill="#EFC75E" d="M67 2.97C61.692 1.05 55.97 0 50 0c-5.97 0-11.692 1.05-17 2.97v94.06c5.308 1.92 11.03 2.97 17 2.97 5.97 0 11.692-1.05 17-2.97V2.97z"/><path fill="#E3BD59" d="M33 2.97v94.06c5.308 1.92 11.03 2.97 17 2.97V0c-5.97 0-11.692 1.05-17 2.97z"/><path fill="#EDEDED" d="M32 18h36c5.523 0 10 4.478 10 10v44c0 5.523-4.477 10-10 10H32c-5.523 0-10-4.477-10-10V28c0-5.522 4.477-10 10-10z"/><path fill="#E1E1E1" d="M32 18c-5.523 0-10 4.478-10 10v44c0 5.523 4.477 10 10 10h18V18H32z"/><path fill="#324D5B" d="M32 21h36c3.866 0 7 3.134 7 7v44c0 3.866-3.134 7-7 7H32c-3.866 0-7-3.134-7-7V28c0-3.866 3.134-7 7-7z"/><path fill="#2F4956" d="M50 21H32c-3.866 0-7 3.134-7 7v44c0 3.866 3.134 7 7 7h18V21z"/><circle fill="#EDEDED" cx="50" cy="51" r="6"/><circle fill="#93D3E8" cx="62.5" cy="43.5" r="4.5"/><circle fill="#3DB39E" cx="37.5" cy="43.5" r="4.5"/><circle fill="#E2574C" cx="50" cy="37" r="5"/><circle fill="#26A6D1" cx="62.5" cy="56.5" r="4.5"/><circle fill="#93D3E8" cx="37.5" cy="56.5" r="4.5"/><circle fill="#EFC75E" cx="50" cy="65" r="5"/><circle fill="#EFC75E" cx="61" cy="33" r="3"/><circle fill="#26A6D1" cx="39" cy="33" r="3"/><circle fill="#3DB39E" cx="61" cy="67" r="3"/><circle fill="#E2574C" cx="39" cy="67" r="3"/><path fill="#2A424D" d="M28 72V28c0-3.866 3.134-7 7-7h-3c-3.866 0-7 3.134-7 7v44c0 3.866 3.134 7 7 7h3c-3.866 0-7-3.134-7-7z"/></symbol><symbol viewBox="0 0 100 100" id="icon-switcher"><title>switcher</title><path fill="#EFC75E" d="M50 0c27.614 0 50 22.386 50 50s-22.386 50-50 50S0 77.614 0 50 22.386 0 50 0z"/><path fill="#324D5B" d="M29 34h42c8.836 0 16 7.164 16 16 0 8.837-7.164 16-16 16H29c-8.836 0-16-7.163-16-16 0-8.836 7.164-16 16-16z"/><path fill="#2D4653" d="M28 39c6.627 0 12 5.373 12 12s-5.373 12-12 12-12-5.373-12-12 5.373-12 12-12z"/><path fill="#3DB39E" d="M29 38c6.627 0 12 5.373 12 12s-5.373 12-12 12-12-5.373-12-12 5.373-12 12-12z"/><path fill="#37A390" d="M25.5 48.5c-1.104 0-2 .896-2 2s.896 2 2 2 2-.896 2-2-.895-2-2-2zm6 0c-1.104 0-2 .896-2 2s.896 2 2 2 2-.896 2-2-.895-2-2-2z"/><path fill="#F2F1EF" d="M55.506 43.984c-3.257 0-5.49 2.615-5.49 6.016 0 3.384 2.25 6.016 5.49 6.016 3.27 0 5.49-2.632 5.49-6.016 0-3.318-2.283-6.016-5.49-6.016zm0 9.776c-2.027 0-3.002-1.766-3.002-3.76 0-1.978 1.006-3.76 3.002-3.76 1.994 0 3 1.782 3 3.76 0 1.994-.974 3.76-3 3.76zm16.268-9.774c-.708 0-1.235.466-1.235 1.296v6.28h-.034l-5.22-7.027c-.215-.3-.726-.55-1.038-.55-.71 0-1.235.467-1.235 1.297v9.436c0 .83.526 1.296 1.235 1.296.708 0 1.234-.465 1.234-1.296v-6.196h.033l5.22 6.944c.232.3.727.548 1.04.548.707 0 1.234-.465 1.234-1.296v-9.436c0-.83-.528-1.296-1.236-1.296z"/><path fill="#fff" d="M26 48c-1.104 0-2 .896-2 2s.896 2 2 2 2-.896 2-2-.896-2-2-2zm6 0c-1.104 0-2 .896-2 2s.896 2 2 2 2-.896 2-2-.896-2-2-2z"/><path fill="#369D8B" d="M31 61c-6.627 0-12-5.373-12-12 0-4.302 2.27-8.064 5.673-10.183C20.187 40.555 17 44.9 17 50c0 6.627 5.373 12 12 12 2.325 0 4.488-.672 6.327-1.817-1.344.52-2.8.817-4.327.817z"/></symbol><symbol viewBox="0 0 100 100" id="icon-theatre"><title>theatre</title><path fill="#324D5B" d="M50 0C22.386 0 0 22.386 0 50c0 27.615 22.386 50 50 50 27.616 0 50-22.385 50-50 0-27.614-22.385-50-50-50z"/><path d="M36.738 54.498c-2.69.763-4.453 2.1-5.615 3.438 1.113-.974 2.604-1.868 4.615-2.438 2.057-.583 3.812-.58 5.262-.3v-1.133c-1.237-.113-2.655-.023-4.262.433zM31 44.966l-9.986 2.63s.182.258.52.6L30 45.967s-.12 1.546-1.162 2.93c1.97-1.492 2.162-3.93 2.162-3.93zm8.36 23.47C25.305 72.22 17.87 55.933 15.62 47.48c-1.04-3.9-1.494-6.856-1.615-8.763-.013-.198-.007-.365.007-.518-.73.043-1.078.422-1.007 1.517.12 1.906.575 4.86 1.615 8.764 2.25 8.453 9.686 24.74 23.74 20.954 3.058-.824 5.356-2.325 7.08-4.24-1.59 1.435-3.58 2.566-6.08 3.24zM42 34.998v1h5.512c-.113-.355-.227-.674-.34-1H42z" fill="#2D4552"/><path d="M48.744 43.236c2.48.704 3.79 2.442 4.483 3.98L55.99 48s-.376-5.382-5.245-6.765c-4.555-1.294-7.358 2.53-7.7 3.026 1.326-.943 3.26-1.716 5.7-1.024zm22.002 4.005c-4.56-1.3-7.36 2.534-7.697 3.022 1.325-.943 3.26-1.716 5.696-1.02 2.475.704 3.785 2.44 4.48 3.98l2.768.787s-.383-5.385-5.248-6.77zM68 61.435l-22.993-6.428s.25 1.262 1.204 2.896l19.36 5.412c1.594-.922 2.43-1.88 2.43-1.88zM52.06 75.27C33.852 70.39 36.053 47.192 39 36.2c1.213-4.53 2.46-7.897 3.494-10.154-.617-.127-1.128.198-1.633 1.225-1.097 2.228-2.5 5.854-3.86 10.93-2.945 10.992-5.146 34.188 13.06 39.07 8.58 2.298 15.265-1.196 20.248-6.683-4.73 4.284-10.77 6.686-18.25 4.683z" fill="#2D4552"/><path fill="#E2574C" d="M42 63v-4.682l-13.006 3.688s.96-5.584 7.744-7.508c2.057-.583 3.812-.58 5.262-.3V35h6.512c-.71-2.19-1.395-3.877-1.97-5.05-.954-1.94-1.93-.653-4.15 1.202-1.56 1.305-5.51 4.09-11.45 5.69-5.94 1.602-10.744 1.177-12.748.83-2.84-.49-4.327-1.114-4.188 1.047.12 1.906.575 4.86 1.615 8.764 2.25 8.453 9.687 24.74 23.74 20.954 3.67-.99 6.262-2.944 8.058-5.436H42zM21.013 47.596L31 44.967s-.29 3.84-4.035 4.828c-3.745.986-5.952-2.198-5.952-2.198z"/><path fill="#EDEDED" d="M79.586 35.22c-2.596.456-8.824 1.023-16.52-1.04-7.7-2.062-12.808-5.668-14.832-7.363-2.87-2.403-4.13-4.073-5.373-1.547-1.097 2.228-2.5 5.854-3.86 10.93-2.945 10.992-5.146 34.188 13.06 39.07 18.2 4.876 27.89-16.314 30.835-27.307 1.36-5.075 1.955-8.918 2.12-11.396.186-2.807-1.742-1.992-5.43-1.346zM43.01 44.316s2.868-4.462 7.734-3.08c4.87 1.384 5.246 6.767 5.246 6.767l-12.98-3.687zm11.877 20.023c-8.56-2.507-9.88-9.332-9.88-9.332L68 61.434s-4.64 5.38-13.113 2.904zm8.13-14.026s2.864-4.46 7.73-3.072c4.864 1.385 5.247 6.768 5.247 6.768l-12.978-3.696z"/><path fill="#D65348" d="M37.455 59.607l-8.46 2.398s.918-5.236 7.15-7.31l-4.79-17.98-.414.125c-5.94 1.602-10.743 1.177-12.747.83-2.84-.49-4.327-1.114-4.188 1.047.12 1.906.575 4.86 1.615 8.764 2.25 8.453 9.686 24.74 23.74 20.954l.413-.13-2.318-8.697zm-16.442-12.01L31 44.967s-.29 3.84-4.035 4.828c-3.745.986-5.952-2.198-5.952-2.198z"/><path fill="#E1E1E1" d="M55.273 64.432l-.387-.094c-8.56-2.507-9.88-9.332-9.88-9.332l11.857 3.314L63.14 34.2l-.076-.02c-7.7-2.062-12.807-5.668-14.83-7.363-2.87-2.403-4.132-4.073-5.374-1.547-1.097 2.228-2.5 5.854-3.86 10.93-2.945 10.992-5.146 34.188 13.06 39.07l.372.083 2.84-10.92zM43.01 44.315s2.868-4.462 7.734-3.08c4.87 1.384 5.246 6.767 5.246 6.767l-12.98-3.687z"/><path d="M37.886 59.484l-2.27.644c.537 3.022 1.482 5.922 2.965 8.484.26-.057.515-.106.778-.178.69-.186 1.328-.416 1.943-.667-1.656-2.46-2.752-5.29-3.414-8.283zM37 38.2c-1.166 4.352-2.21 10.616-1.922 16.9.514-.224 1.057-.432 1.66-.603l.42-.094c-.512-6.71.595-13.55 1.842-18.203.316-1.177.633-2.272.95-3.293-.51.324-1.058.656-1.682.998-.42 1.3-.846 2.72-1.268 4.295z" fill="#C04B41"/></symbol><symbol viewBox="0 0 100 100" id="icon-tie"><title>tie</title><path fill="#EDEDED" d="M50 0C22.387 0 0 22.386 0 50s22.387 50 50 50c27.614 0 50-22.386 50-50S77.614 0 50 0z"/><path fill="#D5D5D5" d="M44.898 3h10.116L65 73 49.977 86 35 73l9.898-70z"/><path fill="#DAD8D8" d="M50 0c6.17 0 12.967 1.457 18.422 3.5L50 18.01 31.64 3.483C37.097 1.44 43.83 0 50 0z"/><path fill="#E2574C" d="M44.898 1h10.116L65 71 49.977 84 35 71l9.898-70z"/><path fill="#CB4E44" d="M49.98 84l.02-.02V1h-5.102L35 71zM44.5 59h11c.828 0 1.5.67 1.5 1.5s-.672 1.5-1.5 1.5h-11c-.828 0-1.5-.673-1.5-1.5s.672-1.5 1.5-1.5z"/><path fill="#B6463D" d="M50 59h-5.5c-.828 0-1.5.67-1.5 1.5s.672 1.5 1.5 1.5H50v-3z"/><path fill="#D15248" d="M43.25 12.667L50 18.01l6.69-5.27L55.014 1H44.898z"/><path fill="#BE4B41" d="M44.898 1l-1.65 11.667L50 18.01V1z"/><path fill="#EC655B" d="M50 0c6.17 0 12.074 1.124 17.53 3.167L50 17.01 32.47 3.166C37.927 1.124 43.83 0 50 0z"/><path fill="#EFC75E" d="M44.5 58h11c.828 0 1.5.67 1.5 1.5s-.672 1.5-1.5 1.5h-11c-.828 0-1.5-.673-1.5-1.5s.672-1.5 1.5-1.5z"/><path fill="#D5D5D5" d="M99.176 41H84v5h15.826c-.134-1.693-.35-3.36-.65-5z"/><path fill="#fff" d="M97.72 35.04l-9.8 1.4c-2.25.32-3.92 2.247-3.92 4.52V41h15.176c-.37-2.032-.85-4.024-1.455-5.96z"/></symbol><symbol viewBox="0 0 100 100" id="icon-tower "><title>tower </title><path fill="#324D5B" d="M50 0c27.614 0 50 22.386 50 50s-22.386 50-50 50S0 77.614 0 50 22.386 0 50 0z"/><path fill="#475F6C" d="M95.16 71.476C83.17 66.196 67.57 63 50.5 63c-17.46 0-33.39 3.34-45.488 8.837C13.12 88.507 30.216 100 50 100c19.927 0 37.126-11.658 45.16-28.524z"/><path fill="#ccc" d="M70.91 66.767l-17.365-9.95L62.995 51 50 43.004 37.005 51l9.813 6.04-16.975 9.727c-.958.55-.958 1.92 0 2.468L50.377 81 70.91 69.234c.958-.548.958-1.92 0-2.467zM41.067 51L50 45.67 58.934 51 50 56.33 41.066 51zm9.31 26.75L33.093 68l16.455-9.282.453.28.813-.502L67.663 68l-17.286 9.75z"/><path fill="#F2F1EF" d="M75.732 75.97l-23-48.96c-.218-.38-.54-.657-.91-.825C51.513 25.488 50.813 25 50 25c-.684 0-1.286.344-1.647.868-.44.15-.834.448-1.085.884l-23 48.497c-.552.955-.225 2.18.732 2.73.957.553 2.18.225 2.732-.73L48 34.513V83c0 1.104.896 2 2 2s2-.896 2-2V34.847L72.268 77.99c.553.966 1.775 1.297 2.732.74s1.284-1.794.732-2.76z"/><path fill="#EFC75E" d="M50 18c2.762 0 5 2.24 5 5 0 2.762-2.238 5-5 5s-5-2.238-5-5c0-2.76 2.238-5 5-5z"/><path d="M30.13 54.98l.857-1.827C21.357 46.803 15 35.897 15 23.5c0-3.75.585-7.362 1.663-10.755-.965.865-1.892 1.77-2.788 2.707C13.308 18.045 13 20.736 13 23.5c0 13.198 6.824 24.795 17.13 31.48zm30.82-18.987l.876 1.862C66.193 34.375 69 29.02 69 23c0-10.493-8.507-19-19-19s-19 8.507-19 19c0 6.02 2.807 11.374 7.174 14.855l.875-1.862C35.352 32.873 33 28.213 33 23c0-9.39 7.61-17 17-17s17 7.61 17 17c0 5.214-2.353 9.874-6.05 12.993zM76 23c0 8.83-4.41 16.617-11.138 21.316l.868 1.848C73.136 41.127 78 32.632 78 23c0-6.993-2.57-13.382-6.81-18.29-1.598-.748-3.244-1.41-4.93-1.99C72.196 7.483 76 14.795 76 23zM34.27 46.164l.87-1.848C28.41 39.616 24 31.83 24 23c0-8.204 3.804-15.516 9.74-20.28-1.687.58-3.333 1.242-4.932 1.99C24.568 9.62 22 16.008 22 23c0 9.632 4.865 18.127 12.27 23.164zm53.126-29.34c-.857-.965-1.753-1.895-2.683-2.792C85.546 17.048 86 20.22 86 23.5c0 12.724-6.698 23.878-16.756 30.146l.857 1.825C80.84 48.875 88 37.026 88 23.5c0-2.28-.215-4.507-.604-6.675zM50 14c4.97 0 9 4.03 9 9 0 1.957-.63 3.762-1.69 5.238l.946 2.015C59.96 28.316 61 25.783 61 23c0-6.075-4.925-11-11-11s-11 4.925-11 11c0 2.782 1.04 5.316 2.745 7.253l.946-2.015C41.63 26.762 41 24.958 41 23c0-4.97 4.03-9 9-9z" fill="#315F73"/><path fill="#D7B354" d="M51 26c-2.762 0-5-2.238-5-5 0-.397.058-.778.146-1.15C45.44 20.714 45 21.8 45 23c0 2.762 2.238 5 5 5 2.364 0 4.334-1.646 4.854-3.85C53.938 25.27 52.562 26 51 26z"/></symbol><symbol viewBox="0 0 100 100" id="icon-turntable"><title>turntable</title><path fill="#3DB39E" d="M50 0c27.613 0 50 22.387 50 50s-22.387 50-50 50S0 77.613 0 50 22.387 0 50 0z"/><path fill="#D9D8D7" d="M89 61l-.117 6.777C89.408 69.922 87.823 72 85.66 72H14.342c-2.162 0-3.865-1.855-3.342-4v-7h78z"/><path fill="#F2F1EF" d="M20.9 28h58.207c1.525 0 2.854 1.062 3.223 2.574l6.553 29.203C89.408 61.922 87.823 64 85.66 64H14.342c-2.162 0-3.748-2.078-3.225-4.223l6.56-29.203C18.046 29.06 19.374 28 20.9 28z"/><path fill="#324D5B" d="M42 32c11.045 0 20 5.373 20 12s-8.955 12-20 12c-11.047 0-20-5.373-20-12s8.953-12 20-12z"/><path fill="#D9D8D7" d="M42 32c11.045 0 20 5.373 20 12s-8.955 12-20 12c-11.047 0-20-5.373-20-12s8.953-12 20-12m0-2c-12.336 0-22 6.15-22 14s9.664 14 22 14c12.337 0 22-6.15 22-14s-9.663-14-22-14z"/><path d="M23.538 39.384L42 44l-5.15-11.583c-6.03.962-10.944 3.562-13.312 6.967zm36.924 9.23L42 44l5.15 11.584c6.03-.964 10.944-3.563 13.312-6.97z" fill="#475F6C"/><path d="M62.585 48.99l-2.05-.497c-2.335 3.464-7.286 6.116-13.386 7.09l.842 1.896c6.8-1.183 12.17-4.338 14.593-8.49zM21.59 38.698l2.06.535c2.406-3.33 7.26-5.868 13.2-6.816l-.843-1.896c-6.63 1.154-11.91 4.18-14.416 8.178z" fill="#DDDCDB"/><path fill="#2D4552" d="M42 35.75c7.857 0 14.25 3.7 14.25 8.25S49.857 52.25 42 52.25 27.75 48.55 27.75 44s6.393-8.25 14.25-8.25m0-.75c-8.285 0-15 4.03-15 9s6.715 9 15 9 15-4.03 15-9-6.715-9-15-9z"/><path fill="#E2574C" d="M42 39c4.418 0 8 2.238 8 5s-3.582 5-8 5-8-2.238-8-5 3.582-5 8-5z"/><path fill="#9E3D35" d="M42 43c1.105 0 2 .447 2 1s-.895 1-2 1-2-.447-2-1 .895-1 2-1z"/><path fill="#D5D9D9" d="M66 33h12l4 20H69l-3-20z"/><path fill="#ACAFAF" d="M69 35l2 12h2l-2-12h-2zm7 0h-2l2 12h2l-2-12z"/><path fill="#26A6D1" d="M72.5 49c-.828 0-1.5.45-1.5 1s.672 1 1.5 1 1.5-.45 1.5-1-.672-1-1.5-1zm5 0c-.828 0-1.5.45-1.5 1s.672 1 1.5 1 1.5-.45 1.5-1-.672-1-1.5-1z"/><path fill="#3DB39E" d="M80 56c1.105 0 2 .672 2 1.5s-.895 1.5-2 1.5-2-.672-2-1.5.895-1.5 2-1.5z"/><path fill="#BDBDBD" d="M17.5 57c-.828 0-1.5.447-1.5 1s.672 1 1.5 1 1.5-.447 1.5-1-.672-1-1.5-1zm5 0c-.828 0-1.5.447-1.5 1s.672 1 1.5 1 1.5-.447 1.5-1-.672-1-1.5-1z"/><path d="M28.153 40.538l.77.192c1.732-2.313 5.245-4.072 9.53-4.71l-.315-.708c-4.523.723-8.21 2.67-9.985 5.226zm27.694 6.924l-.77-.192c-1.73 2.313-5.245 4.072-9.53 4.71l.315.708c4.523-.722 8.208-2.67 9.985-5.226z" fill="#324D5B"/><path d="M70.333 43L71 47h2l-.667-4zM75 40v1l1 6h2l-1.167-7z" fill="#26A6D1"/></symbol><symbol viewBox="0 0 100 100" id="icon-umbrella"><title>umbrella</title><path fill="#82D2ED" d="M50 0c27.614 0 50 22.386 50 50s-22.386 50-50 50S0 77.614 0 50 22.386 0 50 0z"/><path fill="#4681A0" d="M74.675 27.326c-.384-.384-.993-.423-1.422-.09l-5.236 4.073-.006.09 2.59 2.59.093-.005 4.07-5.237c.334-.43.296-1.038-.088-1.422zM29.393 70.06c-1.91 1.874-4.44 2.427-6.337.565-1.283-1.26-.704-3.655 1.145-5.523.652-.658.798-1.703.22-2.424-.687-.852-1.95-.906-2.708-.16 0 0-1.343 1.574-1.79 2.58-1.267 2.85-1.435 5.565.83 7.79 1.618 1.59 3.818 2.278 6 2.09 1.83-.157 3.517-1.032 4.836-2.285l6.407-6.033-2.56-2.514-6.042 5.913z"/><path fill="#DADFE1" d="M37.78 67.01l-2.79-2.79 21.646-21.645c.77-.77 2.02-.77 2.79 0s1.77 1.02 1 1.79L37.778 67.01z"/><path fill="#C4C8CA" d="M54.88 49.912l-2.79-2.79 3.537-3.535 2.79 2.79z"/><path fill="#E2574C" d="M71.152 61.46c3.645 3.644 5.264 8.02 3.878 10.177.366-.315.727-.64 1.072-.984C86.255 60.5 84.356 42.138 71.86 29.64 59.362 17.145 41 15.246 30.846 25.4c-.346.345-.67.706-.984 1.072 2.156-1.385 6.533.234 10.177 3.878 3.515 3.515 5.148 7.713 4.017 9.94-.223.438-.19.957.156 1.304l.14.14c.346.345.866.377 1.303.156 2.23-1.132 6.427.5 9.94 4.016 3.516 3.515 5.148 7.713 4.017 9.94-.222.438-.19.958.157 1.305l.14.138c.346.347.866.38 1.303.156 2.226-1.132 6.425.5 9.94 4.016z"/><path fill="#F2F1EF" d="M70.586 28.425c-7.4-.368-16.938 3.87-24.89 11.822-.475.476-.934.958-1.383 1.445l.04.04c.345.345.865.377 1.302.156 2.23-1.132 6.427.5 9.94 4.016 3.516 3.515 5.148 7.713 4.017 9.94-.222.438-.19.958.157 1.305l.037.037c.486-.45.97-.908 1.445-1.384 7.953-7.95 12.19-17.488 11.822-24.89-.395-.43-.798-.854-1.216-1.272s-.84-.82-1.272-1.215z"/><path fill="#C74C43" d="M74.11 65.294c1.432 2.516 1.837 4.916.92 6.343.366-.315.727-.64 1.072-.984 9.712-9.713 8.39-26.932-2.683-39.348 7.268 11.1 7.416 25.02.69 33.99z"/></symbol><symbol viewBox="0 0 100 100" id="icon-vespa"><title>vespa</title><path fill="#EDEDED" d="M50 0c27.614 0 50 22.386 50 50s-22.386 50-50 50S0 77.614 0 50 22.386 0 50 0z"/><path fill="#324D5B" d="M71 52c-4.97 0-9 4.03-9 9s4.03 9 9 9 9-4.03 9-9-4.03-9-9-9zm-46 0c-4.97 0-9 4.03-9 9s4.03 9 9 9 9-4.03 9-9-4.03-9-9-9z"/><path fill="#B5BCC0" d="M71 56c-2.762 0-5 2.238-5 5s2.238 5 5 5 5-2.238 5-5-2.238-5-5-5zm-46 0c-2.762 0-5 2.238-5 5s2.238 5 5 5 5-2.238 5-5-2.238-5-5-5z"/><path fill="#E2574C" d="M86.97 61.564l.037-.088c0-8.844-7.017-17.154-15.748-17.496H55.735s-1.156-.515-1.74 2.276v2.96c-.036.176-.038.357-.007.524.112.6.554 1.036 1.31 1.295 1.66.556 2.684 1.74 2.735 3.508.036 1.13-.372 2.214-1.145 3.038-.775.825-1.82 1.297-2.95 1.333l-.127.057h-5.53l-.05-.02c-5.612 0-10.18-4.213-10.213-9.548l3.464-14.796c.09-.394-.002-.81-.253-1.125-.25-.315-.632-.5-1.035-.5h-7.2s-1.15-.51-3.25 5.73l-1.704 5.353c-1.54 0-6.24.276-10.433 4.467-.5.5-.774 1.047-.415 1.658l7.262 12.743 9.38.07H85.69c.73 0 1.322-.596 1.322-1.327l-.044-.11z"/><path fill="#EE7269" d="M66.5 53h9c.828 0 1.5-.672 1.5-1.5s-.672-1.5-1.5-1.5h-9c-.828 0-1.5.672-1.5 1.5s.672 1.5 1.5 1.5zm9 1h-9c-.828 0-1.5.672-1.5 1.5s.672 1.5 1.5 1.5h9c.828 0 1.5-.672 1.5-1.5s-.672-1.5-1.5-1.5z"/><path fill="#324D5B" d="M37.984 32.982v-2.826c0-1.34.838-2.18 2.173-2.18H44.7c.73 0 1.323-.782 1.323-1.516s-.592-1.452-1.323-1.452h-4.662l-.026.01c-2.77.03-5.017 2.29-5.017 5.075v2.89h2.99zM27 32c2.762 0 5 2.015 5 4.5S29.762 41 27 41v-9z"/><path fill="#EFC75E" d="M31 47c1.657 0 3 1.344 3 3 0 1.657-1.343 3-3 3s-3-1.343-3-3c0-1.656 1.343-3 3-3z"/><path fill="#D5D5D5" d="M95.828 70H4.172C11.89 87.656 29.5 100 50 100s38.11-12.344 45.828-30z"/><path d="M55.3 51.036c1.66.556 2.684 1.74 2.735 3.508.022.693-.14 1.36-.435 1.97.478-.225.917-.534 1.29-.932.772-.824 1.18-1.908 1.145-3.038-.052-1.768-1.076-2.952-2.734-3.508-.757-.26-1.198-.694-1.31-1.295-.032-.166-.03-.348.007-.523v-2.96l.066-.277h-.327s-1.156-.514-1.74 2.277v2.96c-.036.176-.038.357-.007.524.112.602.553 1.037 1.31 1.296zm31.707 10.44L86.984 61h-51.15l-9.38-.066-7.262-12.744c-.208-.354-.2-.686-.062-1-.51.396-1.02.84-1.523 1.342-.5.5-.774 1.047-.415 1.658l7.262 12.743 9.38.067H85.69c.73 0 1.322-.596 1.322-1.327l-.044-.108.037-.088z" fill="#CB4E44"/><path fill="#324D5B" d="M54.5 36h14c2.485 0 4.5 2.015 4.5 4.5S70.985 45 68.5 45h-14c-2.485 0-4.5-2.015-4.5-4.5s2.015-4.5 4.5-4.5z"/><path d="M75.5 56h-9c-.652 0-1.2-.42-1.408-1-.056.157-.092.324-.092.5 0 .828.672 1.5 1.5 1.5h9c.828 0 1.5-.672 1.5-1.5 0-.176-.036-.343-.092-.5-.207.58-.756 1-1.408 1zm0-4h-9c-.652 0-1.2-.42-1.408-1-.056.157-.092.324-.092.5 0 .828.672 1.5 1.5 1.5h9c.828 0 1.5-.672 1.5-1.5 0-.176-.036-.343-.092-.5-.207.58-.756 1-1.408 1z" fill="#D1645C"/><path fill="#2D4552" d="M29 32.38c-.613-.242-1.288-.38-2-.38v9c.712 0 1.387-.138 2-.38v-8.24z"/><path fill="#CB4E44" d="M31 47c1.657 0 3 1.344 3 3 0 1.657-1.343 3-3 3s-3-1.343-3-3c0-1.656 1.343-3 3-3m0-1c-2.206 0-4 1.794-4 4s1.794 4 4 4 4-1.794 4-4-1.794-4-4-4z"/><path fill="#2B424D" d="M68.5 42h-14c-1.957 0-3.604-1.256-4.225-3-.167.47-.275.97-.275 1.5 0 2.485 2.015 4.5 4.5 4.5h14c2.485 0 4.5-2.015 4.5-4.5 0-.53-.108-1.03-.275-1.5-.62 1.744-2.268 3-4.225 3z"/></symbol><symbol viewBox="0 0 100 100" id="icon-wacom"><title>wacom</title><path fill="#82D2ED" d="M50 0c27.614 0 50 22.386 50 50s-22.386 50-50 50S0 77.614 0 50 22.386 0 50 0z"/><path fill="#324D5B" d="M23 23v54c0 2.21 1.79 4 4 4h62.215C95.96 72.478 100 61.714 100 50s-4.04-22.478-10.785-31H27c-2.21 0-4 1.79-4 4z"/><path fill="#2B414D" d="M46 26H23v2h22v44H23v2h70.87c3.905-7.125 6.13-15.302 6.13-24s-2.225-16.875-6.13-24H46z"/><path fill="#EDEDED" d="M56 35h-2v2c0 .553-.447 1-1 1s-1-.447-1-1v-3c0-.552.447-1 1-1h3c.553 0 1 .448 1 1 0 .553-.447 1-1 1zm-3 27c.553 0 1 .447 1 1v2h2c.553 0 1 .447 1 1s-.447 1-1 1h-3c-.553 0-1-.447-1-1v-3c0-.553.447-1 1-1z"/><g fill="#3A5461"><circle cx="34" cy="50" r="6"/><path d="M32 41h4c.552 0 1-.447 1-1v-2c0-.552-.448-1-1-1h-4c-.552 0-1 .448-1 1v2c0 .553.448 1 1 1zm0-6h4c.552 0 1-.447 1-1v-2c0-.552-.448-1-1-1h-4c-.552 0-1 .448-1 1v2c0 .553.448 1 1 1zm4 30h-4c-.552 0-1 .447-1 1v2c0 .553.448 1 1 1h4c.552 0 1-.447 1-1v-2c0-.553-.448-1-1-1zm0-6h-4c-.552 0-1 .447-1 1v2c0 .553.448 1 1 1h4c.552 0 1-.447 1-1v-2c0-.553-.448-1-1-1z"/></g><path fill="#2B414D" d="M34 48c1.104 0 2 .896 2 2s-.896 2-2 2-2-.896-2-2 .896-2 2-2z"/></symbol><symbol viewBox="0 0 100 100" id="icon-workspace"><title>workspace</title><path fill="#3DB39E" d="M50 0c27.614 0 50 22.386 50 50s-22.386 50-50 50S0 77.614 0 50 22.386 0 50 0z"/><path fill="#37A18E" d="M50.19 41.94c-1.063.284-2.152-.343-2.437-1.4l-6.69-24.877c-.284-1.057.345-2.144 1.406-2.427L70.363 5.79c10.61 5.02 19.16 13.668 24.07 24.34L50.188 41.94zM28 71c-3.01 0-5.81-.896-8.158-2.423l-3.487 3.487c-1.23 1.23-3.222 1.23-4.45 0-1.23-1.23-1.23-3.223 0-4.45l3.494-3.497C13.886 61.777 13 58.994 13 56c0-8.284 6.716-15 15-15s15 6.716 15 15-6.716 15-15 15z"/><path fill="#324D5B" d="M51.19 40.94c-1.063.284-2.152-.343-2.437-1.4l-6.69-24.877c-.284-1.057.345-2.144 1.406-2.427L71.363 4.79c10.61 5.02 19.16 13.668 24.07 24.34L51.188 40.94z"/><path fill="#F2F1EF" d="M31 68c-3.01 0-5.81-.896-8.158-2.423l-3.487 3.487c-1.23 1.23-3.222 1.23-4.45 0-1.23-1.23-1.23-3.223 0-4.45l3.494-3.497C16.886 58.777 16 55.994 16 53c0-8.284 6.716-15 15-15s15 6.716 15 15-6.716 15-15 15z"/><path fill="#9B481A" d="M31 42c6.075 0 11 4.925 11 11s-4.925 11-11 11-11-4.925-11-11 4.925-11 11-11z"/><path fill="#E4E7E7" d="M62.905 98.31l-13.62-23.563c-.558-.966-.227-2.202.74-2.76l36.656-20.716c.968-.557 2.205-.226 2.764.74l7.984 13.814C92.145 81.667 79.158 93.98 62.905 98.31z"/><path d="M97.323 65.643l-1.02-1.766-39.99 23.026 1.02 1.767zM52.23 79.838l1.02 1.766 39.99-23.027-1.02-1.765zm38.615-1.047c.852-1.206 1.65-2.45 2.396-3.732l-32.844 18.91 1.02 1.768 29.43-16.945z" fill="#D7D8D8"/><path fill="#CCD0D2" d="M52.908 67.735c-.49-.828-1.473-1.167-2.198-.758s-.917 1.413-.43 2.24l2.275 3.855c.49.827 1.474 1.166 2.198.757.726-.41.918-1.414.43-2.242l-2.275-3.853zm5.254-2.966c-.49-.83-1.473-1.168-2.198-.758-.726.408-.918 1.412-.43 2.24l2.275 3.854c.488.827 1.472 1.166 2.197.757.726-.41.918-1.413.43-2.24L58.16 64.77zm5.254-2.968c-.49-.828-1.474-1.167-2.198-.757-.726.41-.918 1.412-.43 2.24l2.275 3.854c.49.827 1.473 1.165 2.198.756s.92-1.413.43-2.24l-2.274-3.854zm5.254-2.967c-.49-.827-1.474-1.167-2.198-.757-.726.41-.918 1.412-.43 2.24l2.275 3.854c.488.828 1.473 1.166 2.198.757s.917-1.414.43-2.24l-2.275-3.855zm5.254-2.967c-.49-.827-1.474-1.167-2.2-.757-.724.41-.916 1.413-.427 2.24l2.274 3.855c.49.828 1.474 1.167 2.2.758.725-.41.916-1.413.428-2.24l-2.274-3.855zm5.254-2.966c-.49-.828-1.474-1.168-2.2-.758-.724.41-.916 1.412-.427 2.24l2.275 3.854c.488.828 1.473 1.167 2.198.758.726-.41.917-1.413.43-2.24l-2.275-3.854zm7.528.887l-2.275-3.855c-.487-.828-1.472-1.167-2.197-.758-.725.41-.917 1.413-.428 2.24l2.274 3.854c.487.83 1.472 1.168 2.197.76.726-.41.917-1.414.43-2.24z"/><path fill="#8B4117" d="M29 45c6.075 0 11 4.925 11 11 0 1.605-.352 3.126-.97 4.502C40.867 58.535 42 55.902 42 53c0-6.075-4.925-11-11-11-4.47 0-8.31 2.67-10.03 6.5C22.978 46.35 25.828 45 29 45z"/><path fill="#D0D3D3" d="M50.857 73.747c-.458-.792-.31-1.76.29-2.392l-1.12.633c-.97.557-1.3 1.793-.74 2.76L62.904 98.31c.642-.17 1.27-.376 1.9-.572l-13.948-23.99z"/><path d="M54.88 80.665L53.854 78.9l-1.625.938 1.02 1.766zm8.204 14.11l-1.025-1.763-1.664.957 1.02 1.765zm-4.102-7.054l-1.025-1.763-1.645.946 1.02 1.767z" fill="#B9BCBE"/><path d="M65.69 65.655l-.146-.248-2.612 1.508.132.224c.468.79 1.385 1.126 2.1.798l.202-.117c.633-.445.788-1.38.324-2.165zm-12.415 8.128c.472.266 1.025.302 1.48.046.725-.41.917-1.414.428-2.242l-.088-.148-2.38 1.374.56.97zm4.535-3.678c.49.827 1.473 1.166 2.198.757.726-.41.918-1.413.43-2.24l-.118-.198-2.612 1.508.102.173zM86.706 53.79l-.265-.448-2.61 1.508.25.422c.327.557.878.885 1.425.92l1.315-.76c.23-.478.208-1.097-.114-1.643zm-15.762 8.898l-.176-.298-2.612 1.508.16.273c.41.693 1.162 1.035 1.822.894l.7-.404c.443-.49.51-1.29.106-1.972zm10.508-5.932l-.234-.397-2.612 1.507.22.372c.35.592.953.928 1.534.924l1.156-.667c.28-.49.28-1.157-.064-1.74zm-5.254 2.967l-.205-.35-2.612 1.51.19.322c.375.634 1.04.978 1.655.922l.982-.567c.34-.494.358-1.215-.01-1.837z" fill="#B7BBBD"/><path fill="#324D5B" d="M55.57.316c-1.885 3.434-3.762 6.73-1.588 10.695l1.94-1.18c-1.79-3.262-.06-5.967 1.74-9.246-.692-.106-1.39-.19-2.092-.268z"/><path d="M72.426 22.088c.145.542.7.864 1.24.72l2.938-.79c.54-.146.86-.704.717-1.246l-.786-2.947c-.145-.542-.7-.865-1.24-.72l-2.938.79c-.54.147-.86.705-.717 1.247l.786 2.946zM59.56 17.126l-.788-2.947c-.145-.543-.7-.865-1.24-.72l-2.938.79c-.54.145-.86.702-.717 1.245l.787 2.946c.145.544.7.865 1.24.72l2.938-.79c.54-.144.86-.702.717-1.244zm15.662-4.21l-.787-2.948c-.145-.542-.7-.864-1.24-.72l-2.938.79c-.54.146-.86.704-.717 1.246l.787 2.947c.145.543.7.865 1.24.72l2.938-.79c.54-.145.86-.703.717-1.245zm12.867 4.96c.105.403.438.68.823.74-.3-.373-.61-.74-.92-1.103l.096.364zm-4.966-2.875l-2.938.79c-.54.146-.86.704-.717 1.246l.786 2.947c.146.542.7.864 1.24.72l2.94-.79c.54-.147.86-.704.715-1.246l-.785-2.947c-.145-.542-.7-.865-1.24-.72zm-36.292 5.547c.146.542.7.864 1.24.72l2.94-.79c.54-.147.86-.704.716-1.247l-.787-2.947c-.145-.542-.7-.864-1.24-.72l-2.938.79c-.54.146-.86.703-.717 1.246l.787 2.947zm30.54-11.37l.786 2.948c.146.542.7.864 1.24.72l2.94-.79.128-.064c-1.554-1.327-3.186-2.564-4.895-3.696-.19.243-.285.56-.198.884zM53.11 28.335c.54-.145.86-.703.715-1.245l-.786-2.947c-.147-.543-.702-.865-1.243-.72l-2.937.79c-.54.146-.86.703-.717 1.245l.787 2.947c.146.542.7.865 1.24.72l2.94-.79zm38.056-2.862l-.787-2.946c-.146-.543-.7-.864-1.242-.72L66.622 27.86c-.54.146-.86.703-.717 1.246l.787 2.947c.145.542.7.864 1.24.72l22.517-6.054c.54-.148.86-.705.716-1.248zm-26.572-1.28c.145.544.7.866 1.24.72l2.938-.79c.54-.144.862-.702.717-1.244L68.7 19.93c-.145-.54-.7-.864-1.24-.718l-2.938.79c-.54.145-.86.702-.717 1.245l.787 2.946zm-10.698 7.09l-2.937.788c-.542.146-.862.703-.718 1.246l.787 2.946c.144.542.7.864 1.24.72l2.937-.79c.54-.146.86-.703.717-1.246L55.137 32c-.145-.542-.7-.864-1.24-.72zm2.867-4.983c.145.54.7.863 1.24.718l2.938-.79c.542-.146.862-.703.718-1.245l-.787-2.947c-.144-.542-.7-.864-1.24-.72l-2.937.79c-.54.146-.862.704-.717 1.246l.787 2.947zM67.39 15.02l-.786-2.947c-.146-.542-.7-.864-1.24-.72l-2.94.79c-.54.146-.86.703-.715 1.246l.785 2.946c.146.542.7.864 1.24.72l2.94-.79c.54-.146.86-.704.716-1.246zm-8.53 19.137c.146.542.7.864 1.242.72l2.937-.79c.54-.146.86-.703.716-1.246l-.787-2.946c-.146-.542-.702-.864-1.242-.72l-2.938.79c-.54.146-.86.704-.716 1.246l.786 2.947z" fill="#2D4552"/><path d="M73.426 21.088c.145.542.7.864 1.24.72l2.938-.79c.54-.146.86-.704.717-1.246l-.786-2.947c-.145-.542-.7-.865-1.24-.72l-2.938.79c-.54.147-.86.705-.717 1.247l.786 2.946zm2.796-9.173l-.787-2.947c-.145-.542-.7-.864-1.24-.72l-2.938.79c-.54.146-.86.704-.717 1.246l.787 2.947c.145.543.7.865 1.24.72l2.938-.79c.54-.145.86-.703.717-1.245zm2.936-.79c.146.542.7.864 1.24.72l1.45-.39c-1.05-.868-2.142-1.684-3.26-2.465l.57 2.135zm-31.326 8.422c.146.542.7.864 1.24.72l2.94-.79c.54-.147.86-.704.716-1.247l-.787-2.947c-.145-.542-.7-.864-1.24-.72l-2.938.79c-.54.146-.86.703-.717 1.246l.787 2.947zm36.895-5.502c-.188-.07-.394-.1-.603-.044l-2.938.79c-.54.146-.86.704-.717 1.246l.786 2.947c.146.542.7.864 1.24.72l2.94-.79c.54-.147.86-.704.715-1.246l-.785-2.947-.062-.125-.576-.55zm-24.168 2.08l-.788-2.946c-.145-.543-.7-.865-1.24-.72l-2.938.79c-.54.145-.86.702-.717 1.245l.787 2.946c.145.544.7.865 1.24.72l2.938-.79c.54-.144.86-.702.717-1.244zm31.606 8.347l-.607-2.275c-.32-.476-.655-.94-.99-1.405-.14-.024-.285-.024-.432.015L67.622 26.86c-.54.146-.86.703-.717 1.246l.787 2.947c.145.542.7.864 1.24.72l22.517-6.054c.54-.148.86-.705.716-1.248zm-26.572-1.28c.145.544.7.866 1.24.72l2.938-.79c.54-.144.862-.702.717-1.244L69.7 18.93c-.145-.54-.7-.864-1.24-.718l-2.938.79c-.54.145-.86.702-.717 1.245l.787 2.946zm2.797-9.172l-.786-2.947c-.146-.542-.7-.864-1.24-.72l-2.94.79c-.54.146-.86.703-.715 1.246l.785 2.946c.146.542.7.864 1.24.72l2.94-.79c.54-.146.86-.704.716-1.246zM54.897 30.28l-2.937.79c-.542.146-.862.703-.718 1.246l.787 2.946c.144.542.7.864 1.24.72l2.937-.79c.54-.146.86-.703.717-1.246L56.137 31c-.145-.542-.7-.864-1.24-.72zm-3.724-2.156l2.938-.79c.54-.145.86-.703.716-1.245l-.786-2.947c-.146-.543-.7-.865-1.242-.72l-2.937.79c-.54.146-.86.703-.716 1.245l.787 2.947c.146.542.702.865 1.242.72zm8.688 5.033c.146.542.7.864 1.242.72l2.937-.79c.54-.146.86-.703.716-1.246l-.787-2.946c-.146-.542-.702-.864-1.242-.72l-2.938.79c-.54.146-.86.704-.716 1.246l.786 2.947zM57.763 25.3c.145.54.7.863 1.24.718l2.938-.79c.542-.146.862-.703.718-1.245l-.787-2.947c-.144-.542-.7-.864-1.24-.72l-2.937.79c-.54.146-.862.704-.717 1.246l.787 2.947z" fill="#475F6C"/></symbol><symbol viewBox="0 0 100 100" id="icon-wrench"><title>wrench</title><path fill="#E2574C" d="M50 0c27.614 0 50 22.386 50 50s-22.386 50-50 50S0 77.614 0 50 22.386 0 50 0z"/><path fill="#CD4F45" d="M73.98 38.29c-.605-.124-1.234.063-1.673.5L58.084 53.296c-1.434 1.436-6.255.387-9.5-.88-1.268-3.244-2.316-8.066-.886-9.5l14.575-14.153c.438-.437.628-1.064.502-1.668-.125-.606-.55-1.107-1.12-1.335-9.08-3.612-19.414-1.483-26.32 5.42-6.1 6.1-8.36 14.65-6.57 22.6-.23 3.94-3.81 8.556-5.663 10.44L8.87 78.42c3.646 5.268 8.276 9.8 13.627 13.33l13.557-13.53c1.9-1.874 7.035-5.405 10.946-5.81.59.038 1.81.12 2.082.18l-.002-.024c7.626 1.108 15.33-1.382 20.808-6.854 6.907-6.896 9.04-17.225 5.428-26.3-.228-.575-.73-.997-1.337-1.123z"/><path fill="#EDEDED" d="M73.98 37.29c-.605-.124-1.234.063-1.673.5L58.084 52.296c-1.434 1.436-6.255.387-9.5-.88-1.268-3.244-2.316-8.066-.886-9.5l14.575-14.153c.438-.437.628-1.064.502-1.668-.125-.606-.55-1.107-1.12-1.335-9.08-3.612-19.414-1.483-26.32 5.42-6.1 6.1-8.36 14.65-6.57 22.6-.23 3.94-3.81 8.556-5.663 10.44L8.458 77.83c3.572 5.32 8.14 9.917 13.435 13.523l14.16-14.135c1.9-1.873 7.035-5.404 10.946-5.81.59.04 1.81.12 2.08.18v-.023c7.625 1.108 15.328-1.382 20.807-6.854 6.907-6.895 9.04-17.224 5.428-26.298-.227-.575-.73-.997-1.336-1.123z"/><path d="M76.862 44.556c.127 1.086.187 2.175.17 3.26-.073-2.83-.63-5.673-1.717-8.403-.228-.575-.73-.998-1.337-1.123-.604-.123-1.233.064-1.672.502L58.084 53.295c-1.434 1.436-6.255.387-9.5-.88-.11-.283-.22-.58-.327-.886L14.54 85.245c2.248 2.26 4.71 4.307 7.354 6.107l14.16-14.135c1.9-1.873 7.035-5.404 10.946-5.81.59.04 1.81.12 2.082.18l-.002-.023c7.626 1.108 15.33-1.382 20.808-6.854 5.382-5.373 7.85-12.83 6.974-20.154zm-.868-4.18l-.146-.466.146.465zm.813 3.728c-.04-.29-.083-.578-.134-.866.05.288.095.577.134.866zm-.32-1.814l-.175-.754.174.754z" fill="#E1E1E1"/><path fill="#F4F4F4" d="M35.334 31.18c6.907-6.903 17.24-9.032 26.32-5.42.534.212.93.67 1.083 1.223.085-.285.1-.59.038-.89-.125-.605-.55-1.106-1.12-1.334-9.08-3.612-19.414-1.483-26.32 5.42-4.812 4.812-7.224 11.15-7.152 17.516.18-6.026 2.592-11.956 7.15-16.515zM23.102 63.22L8.458 77.83l.41.59 14.233-14.2c1.852-1.885 5.434-6.5 5.665-10.44l-.07-.362c-.543 3.788-3.84 8.018-5.593 9.8z"/><path fill="#CCD0D2" d="M28.71 67.717L12.906 83.522c1.12 1.238 2.3 2.422 3.54 3.543L32.25 71.257c.978-.98.978-2.563 0-3.54s-2.563-.978-3.54 0z"/><path fill="#B8BCBE" d="M28.71 67.717L12.906 83.522l.484.517 15.32-15.323c.98-.978 2.564-.978 3.542 0 .36.36.586.805.68 1.27.163-.795-.063-1.652-.68-2.27-.978-.978-2.563-.978-3.54 0z"/></symbol></svg>